<svg xmlns="http://www.w3.org/2000/svg" xmlns:xlink="http://www.w3.org/1999/xlink" viewBox="0 0 69.42 52.61"><defs><style>.cls-1{fill:none;}.cls-2,.cls-23,.cls-36,.cls-5{isolation:isolate;}.cls-3{fill:#333;}.cls-4{fill:#4d4d4d;}.cls-23,.cls-36,.cls-5{opacity:0.4;}.cls-5{fill:url(#radial-gradient);}.cls-6{fill:#52009b;}.cls-7{fill:#8e4d00;}.cls-8{clip-path:url(#clip-path);}.cls-9{fill:url(#linear-gradient);}.cls-10{fill:url(#linear-gradient-2);}.cls-11{fill:url(#linear-gradient-3);}.cls-12{fill:url(#linear-gradient-4);}.cls-13{fill:url(#linear-gradient-5);}.cls-14{fill:url(#linear-gradient-6);}.cls-15{fill:url(#linear-gradient-7);}.cls-16{fill:url(#linear-gradient-8);}.cls-17{fill:url(#linear-gradient-9);}.cls-18{fill:#b26900;}.cls-19{fill:url(#linear-gradient-10);}.cls-20{fill:#eff2f8;}.cls-21{fill:url(#linear-gradient-11);}.cls-22{fill:#fff;}.cls-23{fill:url(#radial-gradient-2);}.cls-24{clip-path:url(#clip-path-2);}.cls-25{fill:url(#linear-gradient-12);}.cls-26{fill:url(#linear-gradient-13);}.cls-27{fill:url(#linear-gradient-14);}.cls-28{fill:url(#linear-gradient-15);}.cls-29{fill:url(#linear-gradient-16);}.cls-30{fill:url(#linear-gradient-17);}.cls-31{fill:url(#linear-gradient-18);}.cls-32{fill:url(#linear-gradient-19);}.cls-33{fill:url(#linear-gradient-20);}.cls-34{fill:url(#linear-gradient-21);}.cls-35{fill:url(#linear-gradient-22);}.cls-36{fill:url(#radial-gradient-3);}.cls-37{clip-path:url(#clip-path-3);}.cls-38{fill:url(#linear-gradient-23);}.cls-39{fill:url(#linear-gradient-24);}.cls-40{fill:url(#linear-gradient-25);}.cls-41{fill:url(#linear-gradient-26);}.cls-42{fill:url(#linear-gradient-27);}.cls-43{fill:url(#linear-gradient-28);}.cls-44{fill:url(#linear-gradient-29);}.cls-45{fill:url(#linear-gradient-30);}.cls-46{fill:url(#linear-gradient-31);}.cls-47{fill:url(#linear-gradient-32);}.cls-48{fill:url(#linear-gradient-33);}.cls-49{opacity:0.7;fill:url(#radial-gradient-4);}.cls-50{opacity:0.4;fill:url(#radial-gradient-5);}.cls-51{fill:#824916;}.cls-52{fill:#a56321;}.cls-53{fill:url(#linear-gradient-34);}.cls-54{fill:url(#linear-gradient-35);}.cls-55{fill:url(#linear-gradient-36);}.cls-56{fill:url(#linear-gradient-37);}.cls-57{fill:url(#linear-gradient-38);}.cls-58{fill:url(#linear-gradient-39);}.cls-59,.cls-60,.cls-61{mix-blend-mode:multiply;}.cls-59{fill:url(#linear-gradient-40);}.cls-60{fill:url(#linear-gradient-41);}.cls-61{fill:url(#linear-gradient-42);}.cls-62,.cls-63,.cls-64,.cls-65,.cls-76{mix-blend-mode:screen;}.cls-62{fill:url(#linear-gradient-43);}.cls-63{fill:url(#linear-gradient-44);}.cls-64{fill:url(#linear-gradient-45);}.cls-66{fill:#d8d8d8;}.cls-67{fill:url(#linear-gradient-46);}.cls-68{fill:url(#linear-gradient-47);}.cls-69{opacity:0.6;fill:url(#radial-gradient-6);}.cls-70{fill:url(#linear-gradient-48);}.cls-71{fill:url(#linear-gradient-49);}.cls-72{fill:#7f4e29;}.cls-73{fill:url(#linear-gradient-50);}.cls-74{fill:url(#linear-gradient-51);}.cls-75{fill:url(#radial-gradient-7);}.cls-76{opacity:0.3;fill:url(#linear-gradient-52);}</style><radialGradient id="radial-gradient" cx="57.54" cy="-6351.67" r="5.89" gradientTransform="matrix(0.01, 1, -0.17, 0, -1036.6, -30.59)" gradientUnits="userSpaceOnUse"><stop offset="0.18" stop-color="#1d1733"/><stop offset="0.65" stop-color="#1d1733" stop-opacity="0"/></radialGradient><clipPath id="clip-path"><circle class="cls-1" cx="44.75" cy="13.17" r="6.12"/></clipPath><linearGradient id="linear-gradient" x1="49.86" y1="1495.77" x2="49.86" y2="1502.53" gradientTransform="matrix(0, 1, 1, 0, -1453.81, -40.02)" gradientUnits="userSpaceOnUse"><stop offset="0" stop-color="#b26900"/><stop offset="1" stop-color="#cb7b09"/></linearGradient><linearGradient id="linear-gradient-2" x1="51.22" y1="1495.77" x2="51.22" y2="1502.53" gradientTransform="matrix(0, 1, 1, 0, -1452.47, -41.14)" xlink:href="#linear-gradient"/><linearGradient id="linear-gradient-3" x1="48.49" y1="1495.77" x2="48.49" y2="1502.53" gradientTransform="matrix(0, 1, 1, 0, -1455.16, -38.89)" xlink:href="#linear-gradient"/><linearGradient id="linear-gradient-4" x1="52.59" y1="1495.77" x2="52.59" y2="1502.53" gradientTransform="matrix(0, 1, 1, 0, -1451.12, -42.28)" xlink:href="#linear-gradient"/><linearGradient id="linear-gradient-5" x1="53.96" y1="1495.77" x2="53.96" y2="1502.53" gradientTransform="matrix(0, 1, 1, 0, -1449.78, -43.4)" xlink:href="#linear-gradient"/><linearGradient id="linear-gradient-6" x1="55.32" y1="1495.77" x2="55.32" y2="1502.53" gradientTransform="matrix(0, 1, 1, 0, -1448.43, -44.53)" xlink:href="#linear-gradient"/><linearGradient id="linear-gradient-7" x1="47.12" y1="1495.77" x2="47.12" y2="1502.53" gradientTransform="matrix(0, 1, 1, 0, -1456.51, -37.76)" xlink:href="#linear-gradient"/><linearGradient id="linear-gradient-8" x1="45.76" y1="1495.77" x2="45.76" y2="1502.53" gradientTransform="matrix(0, 1, 1, 0, -1457.85, -36.63)" xlink:href="#linear-gradient"/><linearGradient id="linear-gradient-9" x1="44.39" y1="1495.77" x2="44.39" y2="1502.53" gradientTransform="matrix(0, 1, 1, 0, -1459.2, -35.5)" xlink:href="#linear-gradient"/><linearGradient id="linear-gradient-10" x1="49.86" y1="1489.44" x2="49.86" y2="1500.8" gradientTransform="matrix(0.98, 0.17, 0.17, -0.98, -264.08, 1477.56)" xlink:href="#linear-gradient"/><linearGradient id="linear-gradient-11" x1="54.53" y1="-780.07" x2="48.37" y2="-786.44" gradientTransform="translate(-140.75 778.13) rotate(10)" gradientUnits="userSpaceOnUse"><stop offset="0.51" stop-color="#e48e19"/><stop offset="0.67" stop-color="#ee9e48"/><stop offset="1" stop-color="#b26900"/></linearGradient><radialGradient id="radial-gradient-2" cx="36.84" cy="-6330.34" r="5.95" gradientTransform="matrix(1, -0.01, 0, 0.17, -4.73, 1095.98)" xlink:href="#radial-gradient"/><clipPath id="clip-path-2"><circle class="cls-1" cx="23.46" cy="13.14" r="6.19"/></clipPath><linearGradient id="linear-gradient-12" x1="29.16" y1="1492.05" x2="29.16" y2="1498.88" gradientTransform="matrix(1, 0, 0, -1, -6.3, 1505.24)" xlink:href="#linear-gradient"/><linearGradient id="linear-gradient-13" x1="30.54" y1="1492.05" x2="30.54" y2="1498.88" gradientTransform="matrix(1, 0, 0, -1, -6.32, 1505)" xlink:href="#linear-gradient"/><linearGradient id="linear-gradient-14" x1="27.78" y1="1492.05" x2="27.78" y2="1498.88" gradientTransform="matrix(1, 0, 0, -1, -6.28, 1505.48)" xlink:href="#linear-gradient"/><linearGradient id="linear-gradient-15" x1="31.92" y1="1492.05" x2="31.92" y2="1498.88" gradientTransform="matrix(1, 0, 0, -1, -6.34, 1504.76)" xlink:href="#linear-gradient"/><linearGradient id="linear-gradient-16" x1="33.3" y1="1492.05" x2="33.3" y2="1498.88" gradientTransform="matrix(1, 0, 0, -1, -6.36, 1504.52)" xlink:href="#linear-gradient"/><linearGradient id="linear-gradient-17" x1="34.68" y1="1492.05" x2="34.68" y2="1498.88" gradientTransform="matrix(1, 0, 0, -1, -6.38, 1504.28)" xlink:href="#linear-gradient"/><linearGradient id="linear-gradient-18" x1="26.4" y1="1492.05" x2="26.4" y2="1498.88" gradientTransform="matrix(1, 0, 0, -1, -6.25, 1505.72)" xlink:href="#linear-gradient"/><linearGradient id="linear-gradient-19" x1="25.02" y1="1492.05" x2="25.02" y2="1498.88" gradientTransform="matrix(1, 0, 0, -1, -6.23, 1505.96)" xlink:href="#linear-gradient"/><linearGradient id="linear-gradient-20" x1="23.64" y1="1492.05" x2="23.64" y2="1498.88" gradientTransform="matrix(1, 0, 0, -1, -6.21, 1506.2)" xlink:href="#linear-gradient"/><linearGradient id="linear-gradient-21" x1="29.16" y1="1485.65" x2="29.16" y2="1497.14" gradientTransform="matrix(0.98, -0.17, -0.17, -0.98, 253.83, 1487.59)" xlink:href="#linear-gradient"/><linearGradient id="linear-gradient-22" x1="33.88" y1="-776.29" x2="27.66" y2="-782.73" gradientTransform="translate(130.5 788.16) rotate(-10)" xlink:href="#linear-gradient-11"/><radialGradient id="radial-gradient-3" cx="42.52" cy="-6723.31" r="6.65" gradientTransform="matrix(1, -0.01, 0, 0.17, -0.14, 1161.99)" xlink:href="#radial-gradient"/><clipPath id="clip-path-3"><circle class="cls-1" cx="34.31" cy="11.43" r="6.92"/></clipPath><linearGradient id="linear-gradient-23" x1="34.31" y1="1559.67" x2="34.31" y2="1567.3" gradientTransform="matrix(1, 0, 0, -1, 0, 1571.1)" xlink:href="#linear-gradient"/><linearGradient id="linear-gradient-24" x1="35.85" y1="1559.67" x2="35.85" y2="1567.3" gradientTransform="matrix(1, 0, 0, -1, 0, 1571.1)" xlink:href="#linear-gradient"/><linearGradient id="linear-gradient-25" x1="32.76" y1="1559.67" x2="32.76" y2="1567.3" gradientTransform="matrix(1, 0, 0, -1, 0, 1571.1)" xlink:href="#linear-gradient"/><linearGradient id="linear-gradient-26" x1="37.4" y1="1559.67" x2="37.4" y2="1567.3" gradientTransform="matrix(1, 0, 0, -1, 0, 1571.1)" xlink:href="#linear-gradient"/><linearGradient id="linear-gradient-27" x1="38.94" y1="1559.67" x2="38.94" y2="1567.3" gradientTransform="matrix(1, 0, 0, -1, 0, 1571.1)" xlink:href="#linear-gradient"/><linearGradient id="linear-gradient-28" x1="40.48" y1="1559.67" x2="40.48" y2="1567.3" gradientTransform="matrix(1, 0, 0, -1, 0, 1571.1)" xlink:href="#linear-gradient"/><linearGradient id="linear-gradient-29" x1="31.22" y1="1559.67" x2="31.22" y2="1567.3" gradientTransform="matrix(1, 0, 0, -1, 0, 1571.1)" xlink:href="#linear-gradient"/><linearGradient id="linear-gradient-30" x1="29.68" y1="1559.67" x2="29.68" y2="1567.3" gradientTransform="matrix(1, 0, 0, -1, 0, 1571.1)" xlink:href="#linear-gradient"/><linearGradient id="linear-gradient-31" x1="28.13" y1="1559.67" x2="28.13" y2="1567.3" gradientTransform="matrix(1, 0, 0, -1, 0, 1571.1)" xlink:href="#linear-gradient"/><linearGradient id="linear-gradient-32" x1="34.31" y1="1552.51" x2="34.31" y2="1565.35" gradientTransform="matrix(1, 0, 0, -1, 0, 1571.1)" xlink:href="#linear-gradient"/><linearGradient id="linear-gradient-33" x1="39.59" y1="-843.25" x2="32.63" y2="-850.45" gradientTransform="translate(0 860.88)" xlink:href="#linear-gradient-11"/><radialGradient id="radial-gradient-4" cx="34.71" cy="18.17" r="21.24" gradientTransform="translate(0 13.75) scale(1 0.17)" gradientUnits="userSpaceOnUse"><stop offset="0.42" stop-color="#333"/><stop offset="0.66" stop-color="#383838" stop-opacity="0.63"/><stop offset="1" stop-color="#404040" stop-opacity="0"/></radialGradient><radialGradient id="radial-gradient-5" cx="34.71" cy="35.85" r="22.82" gradientTransform="translate(0 30.47) scale(1 0.15)" gradientUnits="userSpaceOnUse"><stop offset="0"/><stop offset="0.87" stop-color="#2a2a2a" stop-opacity="0.34"/><stop offset="1" stop-color="#404040" stop-opacity="0"/></radialGradient><linearGradient id="linear-gradient-34" x1="13.61" y1="16.99" x2="13.61" y2="34.85" gradientUnits="userSpaceOnUse"><stop offset="0.05" stop-color="#b26900"/><stop offset="0.38" stop-color="#e48e19"/><stop offset="0.53" stop-color="#ffc580"/><stop offset="0.69" stop-color="#ee9e48"/><stop offset="1" stop-color="#b26900"/></linearGradient><linearGradient id="linear-gradient-35" x1="54.64" y1="17" x2="54.64" y2="34.86" xlink:href="#linear-gradient-34"/><linearGradient id="linear-gradient-36" x1="34.08" y1="15.71" x2="34.08" y2="36.19" gradientUnits="userSpaceOnUse"><stop offset="0" stop-color="#f79307"/><stop offset="0.22" stop-color="#ce7b06"/><stop offset="0.33" stop-color="#f59207"/><stop offset="0.61" stop-color="#fc9608"/><stop offset="0.73" stop-color="#de8407"/><stop offset="0.82" stop-color="#e98b07"/><stop offset="1" stop-color="#cc7a06"/></linearGradient><linearGradient id="linear-gradient-37" x1="34.08" y1="15.56" x2="34.08" y2="35.83" gradientUnits="userSpaceOnUse"><stop offset="0" stop-color="#663c00"/><stop offset="0.08" stop-color="#b26900"/><stop offset="0.38" stop-color="#e48e19"/><stop offset="0.53" stop-color="#ffc580"/><stop offset="0.69" stop-color="#ee9e48"/><stop offset="0.92" stop-color="#b26900"/><stop offset="1" stop-color="#4f2f00"/></linearGradient><linearGradient id="linear-gradient-38" x1="34.08" y1="15.16" x2="34.08" y2="36.06" gradientUnits="userSpaceOnUse"><stop offset="0" stop-color="#6a6a6a"/><stop offset="0.18" stop-color="#939393"/><stop offset="0.27" stop-color="#727272"/><stop offset="0.39" stop-color="#c8c8c8"/><stop offset="0.67" stop-color="#b6b6b6"/><stop offset="0.78" stop-color="#797979"/><stop offset="1" stop-color="#bababa"/></linearGradient><linearGradient id="linear-gradient-39" x1="34.08" y1="15.71" x2="34.08" y2="35.53" gradientUnits="userSpaceOnUse"><stop offset="0" stop-color="#d9d9d9"/><stop offset="0.22" stop-color="#959595"/><stop offset="0.33" stop-color="#d3d3d3"/><stop offset="0.61" stop-color="#e6e6e6"/><stop offset="0.73" stop-color="#909090"/><stop offset="0.82" stop-color="#afafaf"/><stop offset="1" stop-color="#878787"/></linearGradient><linearGradient id="linear-gradient-40" x1="40.5" y1="18.24" x2="51.05" y2="18.24" gradientUnits="userSpaceOnUse"><stop offset="0" stop-color="#848484"/><stop offset="0.18" stop-color="#adadad"/><stop offset="0.27" stop-color="#8e8e8e"/><stop offset="0.39" stop-color="#e4e4e4"/><stop offset="0.67" stop-color="#d1d1d1"/><stop offset="0.78" stop-color="#939393"/><stop offset="1" stop-color="#d6d6d6"/></linearGradient><linearGradient id="linear-gradient-41" x1="28.72" y1="18.24" x2="39.28" y2="18.24" xlink:href="#linear-gradient-40"/><linearGradient id="linear-gradient-42" x1="16.95" y1="18.24" x2="27.5" y2="18.24" xlink:href="#linear-gradient-40"/><linearGradient id="linear-gradient-43" x1="40.5" y1="33.4" x2="51.05" y2="33.4" xlink:href="#linear-gradient-40"/><linearGradient id="linear-gradient-44" x1="28.72" y1="33.4" x2="39.28" y2="33.4" xlink:href="#linear-gradient-40"/><linearGradient id="linear-gradient-45" x1="16.95" y1="33.4" x2="27.51" y2="33.4" xlink:href="#linear-gradient-40"/><linearGradient id="linear-gradient-46" x1="52.45" y1="18.9" x2="56.27" y2="20.24" gradientUnits="userSpaceOnUse"><stop offset="0" stop-color="#c5c5c5"/><stop offset="0.2" stop-color="#eee"/><stop offset="0.46" stop-color="#bababa"/><stop offset="0.73" stop-color="#636363"/><stop offset="0.89" stop-color="#797979"/><stop offset="0.91" stop-color="#757575"/><stop offset="0.94" stop-color="#686868"/><stop offset="0.97" stop-color="#545454"/><stop offset="1" stop-color="#3b3b3b"/></linearGradient><linearGradient id="linear-gradient-47" x1="54.53" y1="20.71" x2="54.55" y2="18.5" gradientUnits="userSpaceOnUse"><stop offset="0" stop-color="#3b3b3b"/><stop offset="0.03" stop-color="#545454"/><stop offset="0.06" stop-color="#686868"/><stop offset="0.09" stop-color="#757575"/><stop offset="0.11" stop-color="#797979"/><stop offset="0.27" stop-color="#636363"/><stop offset="0.54" stop-color="#bababa"/><stop offset="0.8" stop-color="#eee"/><stop offset="1" stop-color="#c5c5c5"/></linearGradient><radialGradient id="radial-gradient-6" cx="54.33" cy="30.7" r="3.48" gradientTransform="matrix(-0.03, -1, 0.26, -0.01, 48.75, 75.88)" gradientUnits="userSpaceOnUse"><stop offset="0.04" stop-color="#141414"/><stop offset="1" stop-color="#141414" stop-opacity="0"/></radialGradient><linearGradient id="linear-gradient-48" x1="56.89" y1="15.57" x2="55.49" y2="15.06" gradientUnits="userSpaceOnUse"><stop offset="0.12" stop-color="#454545"/><stop offset="0.65" stop-color="gray"/><stop offset="0.92" stop-color="#c7c7c7"/></linearGradient><linearGradient id="linear-gradient-49" x1="45.08" y1="22.62" x2="47.42" y2="28.06" xlink:href="#linear-gradient-34"/><linearGradient id="linear-gradient-50" x1="32.94" y1="22.62" x2="35.27" y2="28.06" xlink:href="#linear-gradient-34"/><linearGradient id="linear-gradient-51" x1="20.8" y1="22.62" x2="23.13" y2="28.06" xlink:href="#linear-gradient-34"/><radialGradient id="radial-gradient-7" cx="56.76" cy="7.41" r="4.81" gradientUnits="userSpaceOnUse"><stop offset="0.09" stop-color="#ffc580"/><stop offset="0.25" stop-color="#ee9e48"/><stop offset="0.5" stop-color="#b26900"/><stop offset="0.93" stop-color="#4f2f00"/></radialGradient><linearGradient id="linear-gradient-52" x1="58.27" y1="9.91" x2="58.27" y2="7.4" gradientUnits="userSpaceOnUse"><stop offset="0"/><stop offset="1" stop-color="#fff"/></linearGradient></defs><g class="cls-2"><g id="Layer_1" data-name="Layer 1"><g id="Layer_2" data-name="Layer 2"><g id="Layer_3" data-name="Layer 3"><rect class="cls-3" x="0.25" y="0.25" width="68.92" height="52.11"/><path class="cls-4" d="M68.92.5V52.11H.5V.5H68.92m.5-.5H0V52.61H69.42Z"/></g></g><ellipse class="cls-5" cx="43.7" cy="19.46" rx="1.2" ry="6.51" transform="translate(16.95 59.12) rotate(-80)"/><circle class="cls-6" cx="44.75" cy="13.17" r="6.12"/><circle class="cls-7" cx="44.75" cy="13.17" r="6.12"/><g class="cls-8"><rect class="cls-9" x="41.96" y="9.53" width="6.76" height="0.61" transform="matrix(0.17, -0.98, 0.98, 0.17, 27.78, 52.78)"/><rect class="cls-10" x="43.3" y="9.77" width="6.76" height="0.61" transform="translate(28.65 54.3) rotate(-80)"/><rect class="cls-11" x="40.61" y="9.3" width="6.76" height="0.61" transform="translate(26.9 51.26) rotate(-80)"/><rect class="cls-12" x="44.65" y="10.01" width="6.76" height="0.61" transform="matrix(0.17, -0.98, 0.98, 0.17, 29.53, 55.83)"/><rect class="cls-13" x="46" y="10.25" width="6.76" height="0.61" transform="translate(30.41 57.35) rotate(-80)"/><rect class="cls-14" x="47.34" y="10.48" width="6.76" height="0.61" transform="translate(31.29 58.87) rotate(-80)"/><rect class="cls-15" x="39.27" y="9.06" width="6.76" height="0.61" transform="translate(26.02 49.74) rotate(-80)"/><rect class="cls-16" x="37.92" y="8.82" width="6.76" height="0.61" transform="matrix(0.17, -0.98, 0.98, 0.17, 25.14, 48.22)"/><rect class="cls-17" x="36.57" y="8.58" width="6.76" height="0.61" transform="matrix(0.17, -0.98, 0.98, 0.17, 24.26, 46.7)"/></g><circle class="cls-18" cx="44.64" cy="13.81" r="6.12"/><circle class="cls-19" cx="44.64" cy="13.81" r="5.68"/><ellipse class="cls-20" cx="44.66" cy="13.71" rx="5.58" ry="5.68" transform="translate(23.4 55.31) rotate(-80)"/><circle class="cls-21" cx="44.64" cy="13.81" r="4.99"/><polygon class="cls-22" points="43.35 11.21 44.52 11.41 44.67 10.54 45.76 10.73 45.6 11.6 46.82 11.82 46.66 12.7 44.27 14.98 46.26 15.34 46.06 16.49 44.77 16.26 44.62 17.09 43.55 16.9 43.69 16.08 42.4 15.85 42.55 15.01 45.03 12.68 43.15 12.35 43.35 11.21"/><ellipse class="cls-23" cx="24.63" cy="19.47" rx="6.57" ry="1.21" transform="translate(-3.01 4.57) rotate(-10)"/><circle class="cls-6" cx="23.46" cy="13.14" r="6.19"/><circle class="cls-7" cx="23.46" cy="13.14" r="6.19"/><g class="cls-24"><rect class="cls-25" x="22.55" y="6.36" width="0.62" height="6.83" transform="translate(-1.35 4.12) rotate(-10)"/><rect class="cls-26" x="23.91" y="6.12" width="0.62" height="6.83" transform="translate(-1.29 4.35) rotate(-10)"/><rect class="cls-27" x="21.19" y="6.6" width="0.62" height="6.83" transform="translate(-1.41 3.89) rotate(-10)"/><rect class="cls-28" x="25.27" y="5.88" width="0.62" height="6.83" transform="translate(-1.23 4.58) rotate(-10)"/><rect class="cls-29" x="26.63" y="5.64" width="0.62" height="6.83" transform="translate(-1.16 4.82) rotate(-10)"/><rect class="cls-30" x="27.99" y="5.4" width="0.62" height="6.83" transform="translate(-1.1 5.05) rotate(-10)"/><rect class="cls-31" x="19.83" y="6.84" width="0.62" height="6.83" transform="translate(-1.47 3.65) rotate(-10)"/><rect class="cls-32" x="18.47" y="7.08" width="0.62" height="6.83" transform="translate(-1.54 3.42) rotate(-10)"/><rect class="cls-33" x="17.11" y="7.32" width="0.62" height="6.83" transform="translate(-1.6 3.19) rotate(-10)"/></g><circle class="cls-18" cx="23.57" cy="13.79" r="6.19"/><circle class="cls-34" cx="23.57" cy="13.79" r="5.74"/><ellipse class="cls-20" cx="23.55" cy="13.68" rx="5.74" ry="5.64" transform="translate(-2.02 4.3) rotate(-10)"/><circle class="cls-35" cx="23.57" cy="13.79" r="5.04"/><polygon class="cls-22" points="21.45 11.76 22.62 11.55 22.47 10.67 23.57 10.48 23.72 11.36 24.95 11.14 25.11 12.03 23.62 15.03 25.64 14.67 25.84 15.83 24.54 16.07 24.69 16.9 23.6 17.1 23.46 16.27 22.15 16.5 22 15.65 23.55 12.57 21.65 12.91 21.45 11.76"/><ellipse class="cls-36" cx="34.37" cy="18.63" rx="7.35" ry="1.35"/><circle class="cls-6" cx="34.31" cy="11.43" r="6.92"/><circle class="cls-7" cx="34.31" cy="11.43" r="6.92"/><g class="cls-37"><rect class="cls-38" x="33.96" y="3.79" width="0.69" height="7.64"/><rect class="cls-39" x="35.51" y="3.79" width="0.69" height="7.64"/><rect class="cls-40" x="32.42" y="3.79" width="0.69" height="7.64"/><rect class="cls-41" x="37.05" y="3.79" width="0.69" height="7.64"/><rect class="cls-42" x="38.59" y="3.79" width="0.69" height="7.64"/><rect class="cls-43" x="40.14" y="3.79" width="0.69" height="7.64"/><rect class="cls-44" x="30.87" y="3.79" width="0.69" height="7.64"/><rect class="cls-45" x="29.33" y="3.79" width="0.69" height="7.64"/><rect class="cls-46" x="27.79" y="3.79" width="0.69" height="7.64"/></g><circle class="cls-18" cx="34.31" cy="12.16" r="6.92"/><circle class="cls-47" cx="34.31" cy="12.16" r="6.42"/><ellipse class="cls-20" cx="34.31" cy="12.05" rx="6.42" ry="6.3"/><circle class="cls-48" cx="34.31" cy="12.16" r="5.63"/><polygon class="cls-22" points="32.37 9.52 33.7 9.52 33.7 8.52 34.95 8.52 34.95 9.52 36.34 9.52 36.34 10.53 34.13 13.54 36.41 13.54 36.41 14.86 34.93 14.86 34.93 15.81 33.7 15.81 33.7 14.88 32.22 14.88 32.22 13.91 34.52 10.82 32.37 10.82 32.37 9.52"/><ellipse class="cls-49" cx="34.71" cy="16.87" rx="32.62" ry="7.08"/><ellipse class="cls-50" cx="34.71" cy="35.85" rx="34.71" ry="7.56"/><g id="_1" data-name="1"><path class="cls-51" d="M54.72,16.87H13.32c-1.39,0-2.52,4-2.52,8.94s1.13,9,2.52,9h41.4c1.39,0,2.52-4,2.52-8.95S56.11,16.87,54.72,16.87Z"/><path class="cls-52" d="M32.39,16.88h-15c-1.38,0-2.49,4-2.49,8.94s1.11,8.94,2.49,8.94h15Z"/><path class="cls-52" d="M54.5,16.88H44.22V34.76H54.5c1.38,0,2.49-4,2.49-8.94S55.88,16.88,54.5,16.88Z"/><path class="cls-52" d="M13.66,16.88H23.94V34.76H13.66c-1.37,0-2.49-4-2.49-8.94S12.29,16.88,13.66,16.88Z"/><path class="cls-53" d="M15.27,16.87a27.93,27.93,0,0,0-1.15,8.94,27.93,27.93,0,0,0,1.15,8.94h-.83c-1.37,0-2.49-4-2.49-8.94s1.12-8.94,2.49-8.94Z"/><path class="cls-54" d="M56.3,25.82c0,4.94-1.12,8.94-2.49,8.94H53a27.93,27.93,0,0,0,1.15-8.94A27.93,27.93,0,0,0,53,16.88h.83C55.18,16.88,56.3,20.88,56.3,25.82Z"/><path class="cls-55" d="M51.14,15.56H17c-1.15,0-2.08,4.6-2.08,10.26S15.87,36.07,17,36.07H51.14c1.14,0,2.07-4.59,2.07-10.25S52.28,15.56,51.14,15.56Z"/><path class="cls-56" d="M51.36,15.56H16.79c-1.16,0-2.1,4.6-2.1,10.26s.94,10.25,2.1,10.25H51.36c1.16,0,2.11-4.59,2.11-10.25S52.52,15.56,51.36,15.56Z"/><path class="cls-57" d="M50.77,33.6H40.93a103.61,103.61,0,0,0,0-15.56h9.84a13.12,13.12,0,0,1,.56,3.89c.09,1.3.09,6.48,0,7.78A13.12,13.12,0,0,1,50.77,33.6ZM39,18H29.16a139.25,139.25,0,0,0,0,15.56H39A144.22,144.22,0,0,0,39,18ZM27.22,18H17.38a13.46,13.46,0,0,0-.56,3.89c-.09,1.3-.09,6.48,0,7.78a13.46,13.46,0,0,0,.56,3.89h9.84A103.61,103.61,0,0,1,27.22,18Z"/><path class="cls-58" d="M41.39,33.19a113.43,113.43,0,0,0,0-14.75h9.09a12.38,12.38,0,0,1,.42,3l0,.55c.08,1.26.08,6.46,0,7.72l0,.55a12.22,12.22,0,0,1-.42,3Zm-11.87,0c-.23-2.89-.23-11.85,0-14.75h9.11c.23,2.9.23,11.86,0,14.75Zm-11.85,0a12.22,12.22,0,0,1-.42-3l0-.55c-.08-1.26-.08-6.46,0-7.72l0-.55a12.38,12.38,0,0,1,.42-3h9.1a110,110,0,0,0,0,14.75Z"/><polygon class="cls-59" points="40.93 18.04 41.39 18.44 50.48 18.44 50.77 18.04 40.93 18.04"/><polygon class="cls-60" points="29.16 18.04 29.52 18.44 38.63 18.44 39 18.04 29.16 18.04"/><polygon class="cls-61" points="17.38 18.04 17.75 18.44 26.77 18.44 27.22 18.04 17.38 18.04"/><polygon class="cls-62" points="40.93 33.6 41.39 33.2 50.48 33.2 50.77 33.6 40.93 33.6"/><polygon class="cls-63" points="39 33.6 38.63 33.2 29.52 33.2 29.16 33.6 39 33.6"/><polygon class="cls-64" points="26.77 33.2 27.22 33.6 17.38 33.6 17.67 33.2 26.77 33.2"/><g class="cls-65"><path class="cls-66" d="M50.77,18l0,0,.05.12.07.2c0,.08,0,.18.07.28s.09.47.13.76.09.63.13,1,.07.76.11,1.18.06.87.09,1.33.05.93.06,1.41,0,1,0,1.47,0,1,0,1.46,0,1,0,1.42,0,.91-.07,1.33c0,.21,0,.41,0,.61s0,.39-.06.57c0,.37-.09.7-.14,1s-.12.55-.18.76-.06.19-.08.27l0,.11,0,.09-.08.16.07-.16,0-.09,0-.11c0-.08,0-.17.08-.27s.1-.47.15-.76.05-.31.07-.47,0-.34.05-.53,0-.37,0-.57,0-.4,0-.61c0-.42,0-.86.05-1.32s0-.94,0-1.42,0-1,0-1.46l0-1.46c0-.48,0-1-.06-1.42s-.05-.9-.07-1.32-.06-.82-.1-1.18c0-.19,0-.36,0-.53s0-.32-.05-.47S51,18.9,51,18.68s0-.19-.06-.27a1.91,1.91,0,0,0-.06-.21l-.05-.12Z"/></g><g class="cls-65"><path class="cls-66" d="M40.87,18l0,.17q0,.09,0,.21l0,.28c0,.22,0,.47.07.77s0,.63.06,1,0,.77,0,1.18l0,1.32q0,.69,0,1.41c0,.48,0,1,0,1.45v1.45c0,.48,0,1,0,1.41s0,.9,0,1.32,0,.81,0,1.18-.05.7-.07,1,0,.29,0,.42l0,.35c0,.05,0,.1,0,.15l0,.13,0,.21,0,.17,0-.17,0-.21,0-.13a.76.76,0,0,0,0-.15l0-.36a2.54,2.54,0,0,0,0-.41l0-.47c0-.17,0-.34,0-.52,0-.37,0-.76,0-1.18s0-.86,0-1.32,0-.93,0-1.41,0-1,0-1.45,0-1,0-1.45,0-.95,0-1.41,0-.9,0-1.31,0-.82,0-1.18,0-.7,0-1,0-.55,0-.76l0-.29c0-.08,0-.15,0-.21Z"/></g><g class="cls-65"><path class="cls-66" d="M38.9,18l0,.17q0,.09,0,.21l0,.28c0,.22,0,.47.07.77s0,.63.06,1,0,.77.05,1.18l0,1.32,0,1.41c0,.48,0,1,0,1.45v1.45c0,.48,0,1,0,1.41s0,.9,0,1.32,0,.81-.05,1.18,0,.7-.07,1,0,.29,0,.42l0,.35a.77.77,0,0,1,0,.15l0,.13,0,.21,0,.17,0-.17,0-.21,0-.13a.76.76,0,0,0,0-.15l0-.36c0-.12,0-.26,0-.41l0-.47c0-.17,0-.34,0-.52,0-.37,0-.76,0-1.18s0-.86,0-1.32,0-.93,0-1.41,0-1,0-1.45,0-1,0-1.45,0-.95,0-1.41l0-1.31c0-.42,0-.82,0-1.18s0-.7,0-1,0-.55,0-.76l0-.29c0-.08,0-.15,0-.21Z"/></g><g class="cls-65"><path class="cls-66" d="M17.28,18v0a.73.73,0,0,0-.05.12,1.91,1.91,0,0,0-.06.21q0,.12-.06.27c0,.22-.08.47-.12.77s0,.3-.05.47,0,.34-.06.53c0,.36-.06.76-.09,1.18s-.05.86-.08,1.32,0,.94-.05,1.42,0,1,0,1.46,0,1,0,1.46,0,1,0,1.42,0,.9.06,1.32c0,.21,0,.42,0,.61s0,.39.05.57,0,.36.06.53,0,.32.07.47a5.67,5.67,0,0,0,.15.76,1.73,1.73,0,0,0,.08.27l0,.11,0,.09.07.16-.07-.16a.79.79,0,0,1,0-.09l0-.11L17,33a6.83,6.83,0,0,1-.17-.76c-.05-.29-.11-.62-.15-1,0-.18,0-.37,0-.57s0-.4-.05-.61c0-.42-.06-.87-.07-1.33s0-.93,0-1.42,0-1,0-1.46,0-1,0-1.47,0-.95.07-1.41.05-.91.09-1.33.07-.81.11-1.18.08-.7.12-1,.1-.55.14-.76.05-.2.07-.28.05-.14.06-.2a.67.67,0,0,1,.06-.12Z"/></g><g class="cls-65"><path class="cls-66" d="M27.19,18l0,.17q0,.09,0,.21l0,.29c0,.21,0,.47-.05.76s0,.63,0,1,0,.76,0,1.18L27,23c0,.46,0,.93,0,1.41s0,1,0,1.45,0,1,0,1.45,0,1,0,1.41,0,.9,0,1.32,0,.81,0,1.18l0,.52,0,.47c0,.15,0,.29,0,.41l0,.36c0,.05,0,.1,0,.15l0,.13,0,.21,0,.17,0-.17,0-.21,0-.13a.77.77,0,0,0,0-.15l0-.35c0-.13,0-.27-.05-.42s0-.63-.06-1,0-.76-.05-1.18,0-.86,0-1.32,0-.93,0-1.41,0-1,0-1.45,0-1,0-1.45,0-.95,0-1.41l.05-1.32c0-.41,0-.81,0-1.18s0-.69.06-1,0-.55.06-.77l0-.28c0-.08,0-.15,0-.21Z"/></g><g class="cls-65"><path class="cls-66" d="M29.16,18l0,.17q0,.09,0,.21l0,.29c0,.21,0,.47,0,.76s0,.63,0,1,0,.76,0,1.18l0,1.31c0,.46,0,.93,0,1.41s0,1,0,1.45,0,1,0,1.45,0,1,0,1.41,0,.9,0,1.32,0,.81,0,1.18l0,.52,0,.47c0,.15,0,.29,0,.41l0,.36a.76.76,0,0,1,0,.15l0,.13,0,.21,0,.17,0-.17,0-.21,0-.13c0-.05,0-.1,0-.15l0-.35c0-.13,0-.27,0-.42s-.05-.63-.06-1,0-.76,0-1.18,0-.86,0-1.32,0-.93,0-1.41,0-1,0-1.45,0-1,0-1.45,0-.95,0-1.41l0-1.32c0-.41,0-.81.06-1.18s0-.69.06-1,0-.55.06-.77l0-.28c0-.08,0-.15,0-.21Z"/></g><path class="cls-67" d="M54.54,20.61a1,1,0,1,1,0-1.95,1,1,0,1,1,0,1.95Z"/><path class="cls-68" d="M55.46,19.64a.92.92,0,1,1-.92-.87A.89.89,0,0,1,55.46,19.64Z"/><ellipse class="cls-69" cx="54.58" cy="21.04" rx="1.34" ry="5.19" transform="translate(-1.91 5.84) rotate(-6.02)"/><path class="cls-70" d="M54.18,20.42a1,1,0,0,0,1.2-.43l2.95-9.29s0-.44-.31-.56-.62.27-.62.27L53.75,19.2A.86.86,0,0,0,54.18,20.42Z"/></g><polygon class="cls-71" points="44.56 26.24 42.96 24.68 45.17 24.36 46.16 22.35 47.15 24.36 49.36 24.68 47.76 26.24 48.14 28.44 46.16 27.4 44.19 28.44 44.56 26.24"/><path class="cls-72" d="M46.16,22.69l.89,1.81,2,.28L47.6,26.19l.34,2-1.78-.94-1.78.94.34-2-1.43-1.41,2-.28.89-1.81m0-.67-.27.54-.82,1.66-1.83.27-.6.08.44.43,1.32,1.29-.31,1.83-.1.6.53-.29,1.64-.86,1.64.86.54.29-.1-.6-.32-1.83L49.25,25l.44-.43-.61-.08-1.83-.27-.82-1.66L46.16,22Z"/><polygon class="cls-73" points="34.02 27.4 32.04 28.44 32.42 26.24 30.82 24.68 33.03 24.36 34.02 22.35 35.01 24.36 37.22 24.68 35.62 26.24 36 28.44 34.02 27.4"/><path class="cls-72" d="M34,22.69l.89,1.81,2,.28-1.44,1.41.34,2L34,27.23l-1.78.94.34-2-1.44-1.41,2-.28L34,22.69M34,22l-.27.54-.82,1.66-1.83.27-.6.08.43.43,1.33,1.29L32,28.12l-.11.6.54-.29L34,27.57l1.64.86.54.29-.1-.6-.32-1.83L37.11,25l.43-.43-.6-.08-1.83-.27-.82-1.66L34,22Z"/><polygon class="cls-74" points="20.28 26.24 18.68 24.68 20.89 24.36 21.88 22.35 22.87 24.36 25.08 24.68 23.48 26.24 23.86 28.44 21.88 27.4 19.9 28.44 20.28 26.24"/><path class="cls-72" d="M21.88,22.69l.89,1.81,2,.28-1.44,1.41.34,2-1.78-.94-1.78.94.34-2L19,24.78l2-.28.89-1.81m0-.67-.27.54-.82,1.66L19,24.49l-.6.08.43.43,1.33,1.29-.31,1.83-.11.6.54-.29,1.64-.86,1.64.86.54.29-.11-.6-.31-1.83L25,25l.43-.43-.6-.08L23,24.22l-.82-1.66L21.88,22Z"/><circle class="cls-75" cx="58.27" cy="9.42" r="2.36"/><ellipse class="cls-76" cx="58.27" cy="9.1" rx="1.96" ry="1.74"/></g></g></svg>