<svg xmlns="http://www.w3.org/2000/svg" xmlns:xlink="http://www.w3.org/1999/xlink" viewBox="0 0 69.424 52.61"><defs><style>.cls-1{fill:#8e4d00;}.cls-2{fill:#333;}.cls-3{fill:#4d4d4d;}.cls-4{opacity:0.4;isolation:isolate;fill:url(#radial-gradient);}.cls-5{fill:#52009b;}.cls-6{clip-path:url(#clip-path);}.cls-7{fill:url(#linear-gradient);}.cls-8{fill:url(#linear-gradient-2);}.cls-9{fill:url(#linear-gradient-3);}.cls-10{fill:url(#linear-gradient-4);}.cls-11{fill:url(#linear-gradient-5);}.cls-12{fill:url(#linear-gradient-6);}.cls-13{fill:url(#linear-gradient-7);}.cls-14{fill:url(#linear-gradient-8);}.cls-15{fill:url(#linear-gradient-9);}.cls-16{fill:#b26900;}.cls-17{fill:url(#linear-gradient-10);}.cls-18{fill:#eff2f8;}.cls-19{fill:url(#linear-gradient-11);}.cls-20{fill:#fff;}</style><radialGradient id="radial-gradient" cx="42.263" cy="6527.303" r="12.469" gradientTransform="matrix(1, -0.008, -0.001, -0.17, 1.18, 1143.18)" gradientUnits="userSpaceOnUse"><stop offset="0.18" stop-color="#1d1733"/><stop offset="0.65" stop-color="#1d1733" stop-opacity="0"/></radialGradient><clipPath id="clip-path"><circle class="cls-1" cx="34.399" cy="19.588" r="12.964"/></clipPath><linearGradient id="linear-gradient" x1="34.397" y1="19.588" x2="34.397" y2="5.275" gradientUnits="userSpaceOnUse"><stop offset="0" stop-color="#b26900"/><stop offset="1" stop-color="#cb7b09"/></linearGradient><linearGradient id="linear-gradient-2" x1="37.291" y1="19.588" x2="37.291" y2="5.275" xlink:href="#linear-gradient"/><linearGradient id="linear-gradient-3" x1="31.504" y1="19.588" x2="31.504" y2="5.275" xlink:href="#linear-gradient"/><linearGradient id="linear-gradient-4" x1="40.186" y1="19.588" x2="40.186" y2="5.275" xlink:href="#linear-gradient"/><linearGradient id="linear-gradient-5" x1="43.079" y1="19.588" x2="43.079" y2="5.275" xlink:href="#linear-gradient"/><linearGradient id="linear-gradient-6" x1="45.972" y1="19.588" x2="45.972" y2="5.275" xlink:href="#linear-gradient"/><linearGradient id="linear-gradient-7" x1="28.611" y1="19.588" x2="28.611" y2="5.275" xlink:href="#linear-gradient"/><linearGradient id="linear-gradient-8" x1="25.718" y1="19.588" x2="25.718" y2="5.275" xlink:href="#linear-gradient"/><linearGradient id="linear-gradient-9" x1="22.825" y1="19.588" x2="22.825" y2="5.275" xlink:href="#linear-gradient"/><linearGradient id="linear-gradient-10" x1="34.399" y1="32.998" x2="34.399" y2="8.938" xlink:href="#linear-gradient"/><linearGradient id="linear-gradient-11" x1="44.295" y1="1909.671" x2="31.257" y2="1923.159" gradientTransform="matrix(1, 0, 0, -1, 0, 1940.877)" gradientUnits="userSpaceOnUse"><stop offset="0.508" stop-color="#e48e19"/><stop offset="0.665" stop-color="#ee9e48"/><stop offset="1" stop-color="#b26900"/></linearGradient></defs><g id="Layer_2" data-name="Layer 2"><g id="Layer_3" data-name="Layer 3"><rect class="cls-2" x="0.25" y="0.25" width="68.924" height="52.11"/><path class="cls-3" d="M68.924.5V52.11H.5V.5H68.924m.5-.5H0V52.61H69.424V0Z"/><ellipse class="cls-4" cx="34.516" cy="33.088" rx="13.776" ry="2.537"/><circle class="cls-5" cx="34.399" cy="19.588" r="12.964"/><circle class="cls-1" cx="34.399" cy="19.588" r="12.964"/><g class="cls-6"><rect class="cls-7" x="33.748" y="5.275" width="1.299" height="14.314"/><rect class="cls-8" x="36.641" y="5.275" width="1.299" height="14.314"/><rect class="cls-9" x="30.855" y="5.275" width="1.299" height="14.314"/><rect class="cls-10" x="39.536" y="5.275" width="1.299" height="14.314"/><rect class="cls-11" x="42.429" y="5.275" width="1.299" height="14.314"/><rect class="cls-12" x="45.323" y="5.275" width="1.299" height="14.314"/><rect class="cls-13" x="27.962" y="5.275" width="1.299" height="14.314"/><rect class="cls-14" x="25.068" y="5.275" width="1.299" height="14.314"/><rect class="cls-15" x="22.175" y="5.275" width="1.299" height="14.314"/></g><circle class="cls-16" cx="34.399" cy="20.968" r="12.964"/><circle class="cls-17" cx="34.399" cy="20.968" r="12.03"/><ellipse class="cls-18" cx="34.399" cy="20.745" rx="12.03" ry="11.807"/><circle class="cls-19" cx="34.399" cy="20.968" r="10.558"/><polygon class="cls-20" points="30.756 16.012 33.259 16.012 33.259 14.142 35.596 14.142 35.596 16.012 38.208 16.012 38.208 17.909 34.056 23.546 38.346 23.546 38.346 26.021 35.568 26.021 35.568 27.808 33.259 27.808 33.259 26.048 30.482 26.048 30.482 24.234 34.799 18.459 30.756 18.459 30.756 16.012"/></g></g></svg>