<svg xmlns="http://www.w3.org/2000/svg" viewBox="0 0 17.5 17.55"><defs><style>.cls-1{fill:#fff;}</style></defs><title>Asset 1</title><g id="Layer_2" data-name="Layer 2"><g id="Layer_1-2" data-name="Layer 1"><path class="cls-1" d="M10.5,8.77l6.62-6.56A1.31,1.31,0,0,0,17.25.53,1.19,1.19,0,0,0,15.6.2l-.23.2L8.75,7,2.12.4A1.18,1.18,0,0,0,.45.3a1.37,1.37,0,0,0-.2.22A1.32,1.32,0,0,0,.37,2.21L7,8.77.37,15.34A1.32,1.32,0,0,0,.25,17a1.19,1.19,0,0,0,1.65.32.83.83,0,0,0,.22-.2l6.63-6.62,6.62,6.62a1.19,1.19,0,0,0,1.68.1,1,1,0,0,0,.2-.22,1.32,1.32,0,0,0-.13-1.69Z"/></g></g></svg>