<svg width="46" height="35" viewBox="0 0 46 35" fill="none" xmlns="http://www.w3.org/2000/svg">
<path d="M38.938 2.90368C35.9575 1.53407 32.8101 0.560036 29.5761 0.00641736C29.5468 0.000316925 29.5164 0.0039762 29.4895 0.0168313C29.4626 0.0296863 29.4406 0.0510237 29.427 0.0775556C28.9981 0.852793 28.6089 1.64927 28.2608 2.46392C24.7759 1.93365 21.2306 1.93365 17.7456 2.46392C17.3962 1.64661 17.0003 0.849865 16.56 0.0775556C16.5464 0.0510237 16.5245 0.0296863 16.4975 0.0168313C16.4706 0.0039762 16.4402 0.000316925 16.411 0.00641736C13.1774 0.561694 10.0302 1.53567 7.04902 2.90368C7.03523 2.90739 7.02236 2.9139 7.01121 2.9228C7.00006 2.9317 6.99088 2.94281 6.98423 2.95542C1.02367 11.8477 -0.60901 20.5201 0.187891 29.089C0.194825 29.1325 0.217967 29.1718 0.25268 29.199C3.72228 31.7731 7.6042 33.7412 11.7332 35.0194C11.7623 35.0283 11.7934 35.0281 11.8223 35.0188C11.8513 35.0096 11.8767 34.9917 11.8952 34.9676C12.7877 33.7553 13.5766 32.4703 14.2535 31.1262C14.2631 31.1081 14.2687 31.0883 14.2699 31.0679C14.2711 31.0476 14.2679 31.0272 14.2605 31.0082C14.2531 30.9892 14.2417 30.972 14.2271 30.9577C14.2125 30.9435 14.195 30.9326 14.1758 30.9257C12.9375 30.4486 11.7376 29.8779 10.5865 29.2184C10.5664 29.2047 10.55 29.1864 10.5387 29.165C10.5274 29.1436 10.5214 29.1197 10.5214 29.0955C10.5214 29.0713 10.5274 29.0474 10.5387 29.026C10.55 29.0046 10.5664 28.9863 10.5865 28.9726L11.2992 28.4164C11.321 28.4011 11.347 28.3929 11.3737 28.3929C11.4003 28.3929 11.4264 28.4011 11.4482 28.4164C15.0651 30.1104 19.0113 30.9885 23.0065 30.9885C27.0017 30.9885 30.9479 30.1104 34.5648 28.4164C34.5869 28.402 34.6128 28.3943 34.6393 28.3943C34.6658 28.3943 34.6917 28.402 34.7138 28.4164C34.947 28.6104 35.1868 28.798 35.4265 28.9791C35.4465 28.9927 35.4629 29.011 35.4743 29.0325C35.4856 29.0539 35.4915 29.0777 35.4915 29.1019C35.4915 29.1262 35.4856 29.15 35.4743 29.1714C35.4629 29.1928 35.4465 29.2112 35.4265 29.2248C34.2799 29.8912 33.0793 30.4602 31.8372 30.9257C31.8184 30.9341 31.8014 30.9461 31.7873 30.9611C31.7732 30.976 31.7622 30.9937 31.755 31.0129C31.7477 31.0322 31.7444 31.0527 31.7452 31.0732C31.7459 31.0938 31.7508 31.114 31.7594 31.1326C32.4515 32.4587 33.2374 33.7338 34.1113 34.9482C34.1298 34.9723 34.1552 34.9902 34.1841 34.9994C34.2131 35.0087 34.2442 35.0089 34.2732 35C38.4103 33.7267 42.2994 31.7584 45.7732 29.1796C45.7914 29.1676 45.8063 29.1513 45.8165 29.132C45.8267 29.1128 45.8319 29.0914 45.8316 29.0696C46.7806 19.8321 44.3556 10.5632 39.0028 2.96835C38.9977 2.95334 38.9892 2.9397 38.978 2.92849C38.9667 2.91727 38.9531 2.90879 38.938 2.90368ZM15.3744 23.8765C13.1068 23.8765 11.2408 21.7941 11.2408 19.2461C11.2408 16.698 13.0679 14.6092 15.3744 14.6092C17.6808 14.6092 19.5403 16.7045 19.5079 19.2396C19.4755 21.7747 17.6744 23.8765 15.3744 23.8765ZM30.658 23.8765C28.3904 23.8765 26.5245 21.7941 26.5245 19.2461C26.5245 16.698 28.3516 14.6092 30.658 14.6092C32.9645 14.6092 34.8239 16.7045 34.7916 19.2396C34.7592 21.7747 32.9775 23.8765 30.658 23.8765Z" fill="white"/>
</svg>
