<svg width="34" height="34" viewBox="0 0 34 34" fill="none" xmlns="http://www.w3.org/2000/svg">
<g clip-path="url(#clip0_2_155)">
<path d="M13.3853 15.6248C12.2944 15.6248 11.4271 16.6116 11.4271 17.822C11.4271 19.0324 12.3118 20.0192 13.3853 20.0192C14.4588 20.0192 15.3435 19.0324 15.3435 17.822C15.3608 16.6193 14.4839 15.6248 13.3853 15.6248Z" fill="#904BEE"/>
<path d="M20.6282 15.6248C19.5373 15.6248 18.67 16.6116 18.67 17.822C18.67 19.0324 19.5547 20.0192 20.6282 20.0192C21.7017 20.0192 22.5864 19.0324 22.5864 17.822C22.6037 16.6193 21.7268 15.6248 20.6282 15.6248Z" fill="#904BEE"/>
<path d="M17.001 0C7.61102 0 0 7.61102 0 17.001C0 26.3909 7.61102 34.0019 17.001 34.0019C26.3909 34.0019 34.0019 26.3909 34.0019 17.001C34.0019 7.61102 26.389 0 17.001 0ZM27.8056 22.4938C27.8056 22.5131 27.794 22.5324 27.7767 22.544C25.9129 23.9124 24.107 24.745 22.3262 25.2943C22.2973 25.302 22.2664 25.2943 22.2491 25.2692C21.8366 24.6968 21.4647 24.0935 21.137 23.4594C21.1177 23.4228 21.137 23.3766 21.1736 23.3631C21.7672 23.1395 22.332 22.8716 22.8755 22.5536C22.9179 22.5285 22.9217 22.4669 22.8812 22.438C22.7656 22.3532 22.6519 22.2626 22.542 22.172C22.5208 22.1546 22.4938 22.1527 22.4707 22.1643C18.9456 23.7929 15.0833 23.7929 11.5177 22.1643C11.4946 22.1546 11.4676 22.1566 11.4464 22.1739C11.3365 22.2645 11.2228 22.3532 11.1091 22.438C11.0686 22.4669 11.0725 22.5285 11.1168 22.5536C11.6603 22.8658 12.225 23.1395 12.8167 23.3631C12.8553 23.3785 12.8726 23.4228 12.8553 23.4594C12.5353 24.0935 12.1614 24.6987 11.7413 25.2711C11.7239 25.2943 11.6931 25.3058 11.6642 25.2962C9.89105 24.745 8.08514 23.9143 6.22142 22.5459C6.206 22.5343 6.19443 22.5151 6.19251 22.4958C5.81282 18.4291 6.58761 14.3123 9.41307 10.0896C9.42078 10.078 9.43042 10.0703 9.44198 10.0645C10.8316 9.42656 12.3214 8.9563 13.8787 8.6884C13.9076 8.68454 13.9346 8.69611 13.95 8.72309C14.1427 9.06423 14.3625 9.4998 14.5109 9.85828C16.151 9.60773 17.8182 9.60773 19.493 9.85828C19.6414 9.50944 19.8534 9.06423 20.0461 8.72309C20.0616 8.69803 20.0885 8.68454 20.1175 8.6884C21.6747 8.95822 23.1646 9.42656 24.5542 10.0645C24.5657 10.0703 24.5773 10.078 24.5831 10.0896C27.0443 13.7091 28.2604 17.7931 27.8056 22.4958V22.4938Z" fill="#904BEE"/>
<path d="M24.5541 10.0626C23.1645 9.42464 21.6747 8.9563 20.1174 8.68647C20.0885 8.68069 20.0615 8.69418 20.0461 8.72116C19.8553 9.0623 19.6414 9.50559 19.493 9.85636C17.8181 9.60581 16.151 9.60581 14.5108 9.85636C14.3624 9.4998 14.1427 9.0623 13.95 8.72116C13.9346 8.69611 13.9076 8.68262 13.8787 8.68647C12.3214 8.95437 10.8316 9.42464 9.44196 10.0626C9.4304 10.0684 9.41883 10.0761 9.41305 10.0876C6.58759 14.3085 5.8128 18.4272 6.19249 22.4938C6.19249 22.5131 6.20598 22.5324 6.22139 22.544C8.08512 23.9124 9.89103 24.745 11.6642 25.2943C11.6931 25.302 11.722 25.2943 11.7413 25.2692C12.1614 24.6968 12.5334 24.0935 12.8553 23.4575C12.8745 23.4209 12.8553 23.3766 12.8167 23.3611C12.2231 23.1357 11.6603 22.862 11.1168 22.5517C11.0744 22.5266 11.0706 22.4649 11.1091 22.436C11.2228 22.3512 11.3385 22.2606 11.4464 22.172C11.4657 22.1546 11.4946 22.1527 11.5177 22.1623C15.0852 23.7909 18.9456 23.7909 22.4707 22.1623C22.4938 22.1508 22.5208 22.1546 22.542 22.1701C22.6519 22.2606 22.7656 22.3493 22.8812 22.436C22.9217 22.4649 22.9178 22.5266 22.8754 22.5517C22.3319 22.8697 21.7672 23.1376 21.1736 23.3611C21.1351 23.3766 21.1177 23.4209 21.137 23.4575C21.4646 24.0916 21.8385 24.6949 22.2491 25.2673C22.2664 25.2923 22.2972 25.302 22.3262 25.2923C24.107 24.7411 25.9129 23.9104 27.7766 22.542C27.7921 22.5305 27.8036 22.5112 27.8055 22.4919C28.2604 17.7912 27.0443 13.7072 24.5831 10.0857C24.5773 10.0741 24.5676 10.0645 24.5541 10.0607V10.0626ZM13.3872 20.0172C12.3137 20.0172 11.429 19.0304 11.429 17.8201C11.429 16.6097 12.2963 15.6229 13.3872 15.6229C14.4781 15.6229 15.3627 16.6174 15.3454 17.8201C15.3454 19.0304 14.4781 20.0172 13.3872 20.0172ZM20.6301 20.0172C19.5566 20.0172 18.6719 19.0304 18.6719 17.8201C18.6719 16.6097 19.5392 15.6229 20.6301 15.6229C21.721 15.6229 22.6056 16.6174 22.5883 17.8201C22.5883 19.0304 21.7287 20.0172 20.6301 20.0172Z" fill="#F3F7F7"/>
</g>
<defs>
<clipPath id="clip0_2_155">
<rect width="34" height="34" fill="white"/>
</clipPath>
</defs>
</svg>
