<svg width="34" height="34" viewBox="0 0 34 34" fill="none" xmlns="http://www.w3.org/2000/svg">
<g clip-path="url(#clip0_2_123)">
<path d="M17.001 0C7.61102 0 0 7.61102 0 17.001C0 26.3909 7.61102 34.0019 17.001 34.0019C26.3909 34.0019 34.0019 26.3909 34.0019 17.001C34.0019 7.61102 26.389 0 17.001 0ZM21.8501 10.7025C21.8501 10.7025 20.0635 10.6851 19.6144 10.6851C18.9399 10.6851 18.4889 11.2691 18.4889 11.8666V14.3547H21.8501L21.4666 17.743H18.4503V26.3832H15.037V17.7815H12.1518V14.3143H15.0756V11.0455C15.0756 9.22419 17.105 7.61873 18.5158 7.61873C18.7278 7.61873 21.8501 7.64764 21.8501 7.64764V10.7005V10.7025Z" fill="#904BEE"/>
<path d="M15.0756 11.0455V14.3143H12.1518V17.7815H15.037V26.3832H18.4503V17.743H21.4666L21.8501 14.3547H18.4889V11.8666C18.4889 11.2691 18.9379 10.6851 19.6144 10.6851C20.0635 10.6851 21.8501 10.7025 21.8501 10.7025V7.64957C21.8501 7.64957 18.7278 7.62066 18.5158 7.62066C17.105 7.62066 15.0756 9.22612 15.0756 11.0474V11.0455Z" fill="#F7F7F5"/>
</g>
<defs>
<clipPath id="clip0_2_123">
<rect width="34" height="34" fill="white"/>
</clipPath>
</defs>
</svg>
