<svg xmlns="http://www.w3.org/2000/svg" xmlns:xlink="http://www.w3.org/1999/xlink" viewBox="0 0 69.42 52.61"><defs><style>.cls-1{fill:none;}.cls-2,.cls-23,.cls-39,.cls-5{isolation:isolate;}.cls-3{fill:#333;}.cls-4{fill:#4d4d4d;}.cls-23,.cls-39,.cls-5{opacity:0.4;}.cls-5{fill:url(#radial-gradient);}.cls-6{fill:url(#linear-gradient);}.cls-7{clip-path:url(#clip-path);}.cls-8{fill:url(#linear-gradient-2);}.cls-9{fill:url(#linear-gradient-3);}.cls-10{fill:url(#linear-gradient-4);}.cls-11{fill:url(#linear-gradient-5);}.cls-12{fill:url(#linear-gradient-6);}.cls-13{fill:url(#linear-gradient-7);}.cls-14{fill:url(#linear-gradient-8);}.cls-15{fill:url(#linear-gradient-9);}.cls-16{fill:url(#linear-gradient-10);}.cls-17{fill:url(#linear-gradient-11);}.cls-18{fill:url(#linear-gradient-12);}.cls-19{fill:#eff2f8;}.cls-20{fill:url(#linear-gradient-13);}.cls-21{fill:url(#linear-gradient-14);}.cls-22{fill:#fff;}.cls-23{fill:url(#radial-gradient-2);}.cls-24{fill:url(#linear-gradient-15);}.cls-25{clip-path:url(#clip-path-2);}.cls-26{fill:url(#linear-gradient-16);}.cls-27{fill:url(#linear-gradient-17);}.cls-28{fill:url(#linear-gradient-18);}.cls-29{fill:url(#linear-gradient-19);}.cls-30{fill:url(#linear-gradient-20);}.cls-31{fill:url(#linear-gradient-21);}.cls-32{fill:url(#linear-gradient-22);}.cls-33{fill:url(#linear-gradient-23);}.cls-34{fill:url(#linear-gradient-24);}.cls-35{fill:url(#linear-gradient-25);}.cls-36{fill:url(#linear-gradient-26);}.cls-37{fill:url(#linear-gradient-27);}.cls-38{fill:url(#linear-gradient-28);}.cls-39{fill:url(#radial-gradient-3);}.cls-40{fill:url(#linear-gradient-29);}.cls-41{clip-path:url(#clip-path-3);}.cls-42{fill:url(#linear-gradient-30);}.cls-43{fill:url(#linear-gradient-31);}.cls-44{fill:url(#linear-gradient-32);}.cls-45{fill:url(#linear-gradient-33);}.cls-46{fill:url(#linear-gradient-34);}.cls-47{fill:url(#linear-gradient-35);}.cls-48{fill:url(#linear-gradient-36);}.cls-49{fill:url(#linear-gradient-37);}.cls-50{fill:url(#linear-gradient-38);}.cls-51{fill:url(#linear-gradient-39);}.cls-52{fill:url(#linear-gradient-40);}.cls-53{fill:url(#linear-gradient-41);}.cls-54{fill:url(#linear-gradient-42);}.cls-55{opacity:0.7;fill:url(#radial-gradient-4);}.cls-56{opacity:0.4;fill:url(#radial-gradient-5);}.cls-57{fill:#825200;}.cls-58{fill:#a56321;}.cls-59{fill:#a56e05;}.cls-60{fill:url(#linear-gradient-43);}.cls-61{fill:url(#linear-gradient-44);}.cls-62{fill:url(#linear-gradient-45);}.cls-63{fill:url(#linear-gradient-46);}.cls-64{fill:url(#linear-gradient-47);}.cls-65{fill:url(#linear-gradient-48);}.cls-66,.cls-67,.cls-68{mix-blend-mode:multiply;}.cls-66{fill:url(#linear-gradient-49);}.cls-67{fill:url(#linear-gradient-50);}.cls-68{fill:url(#linear-gradient-51);}.cls-69,.cls-70,.cls-71,.cls-72,.cls-83{mix-blend-mode:screen;}.cls-69{fill:url(#linear-gradient-52);}.cls-70{fill:url(#linear-gradient-53);}.cls-71{fill:url(#linear-gradient-54);}.cls-73{fill:#d8d8d8;}.cls-74{opacity:0.6;fill:url(#radial-gradient-6);}.cls-75{fill:url(#linear-gradient-55);}.cls-76{fill:url(#linear-gradient-56);}.cls-77{fill:url(#linear-gradient-57);}.cls-78{fill:url(#linear-gradient-58);}.cls-79{fill:#b27239;}.cls-80{fill:url(#linear-gradient-59);}.cls-81{fill:url(#linear-gradient-60);}.cls-82{fill:url(#radial-gradient-7);}.cls-83{opacity:0.3;fill:url(#linear-gradient-61);}</style><radialGradient id="radial-gradient" cx="54.52" cy="-6147.8" r="5.94" gradientTransform="matrix(0.01, 1, -0.17, 0, -1002.05, -27.75)" gradientUnits="userSpaceOnUse"><stop offset="0.18" stop-color="#1d1733"/><stop offset="0.65" stop-color="#1d1733" stop-opacity="0"/></radialGradient><linearGradient id="linear-gradient" x1="40.84" y1="1526.78" x2="53.2" y2="1526.78" gradientTransform="matrix(0.98, 0.17, 0.17, -0.98, -266.8, 1508.62)" gradientUnits="userSpaceOnUse"><stop offset="0" stop-color="#d48600"/><stop offset="0.01" stop-color="#cd8100"/><stop offset="0.06" stop-color="#b97300"/><stop offset="0.11" stop-color="#ab6900"/><stop offset="0.17" stop-color="#a36300"/><stop offset="0.29" stop-color="#a16100"/><stop offset="1" stop-color="#db8e00"/></linearGradient><clipPath id="clip-path"><circle class="cls-1" cx="44.63" cy="13.2" r="6.18"/></clipPath><linearGradient id="linear-gradient-2" x1="47.02" y1="1526.78" x2="47.02" y2="1533.6" gradientTransform="matrix(0, 1, 1, 0, -1484.97, -37.18)" gradientUnits="userSpaceOnUse"><stop offset="0.58" stop-color="#b77700"/><stop offset="1" stop-color="#d69700"/></linearGradient><linearGradient id="linear-gradient-3" x1="48.4" y1="1526.78" x2="48.4" y2="1533.6" gradientTransform="matrix(0, 1, 1, 0, -1483.61, -38.32)" xlink:href="#linear-gradient-2"/><linearGradient id="linear-gradient-4" x1="45.64" y1="1526.78" x2="45.64" y2="1533.6" gradientTransform="matrix(0, 1, 1, 0, -1486.33, -36.04)" xlink:href="#linear-gradient-2"/><linearGradient id="linear-gradient-5" x1="49.78" y1="1526.78" x2="49.78" y2="1533.6" gradientTransform="matrix(0, 1, 1, 0, -1482.26, -39.46)" xlink:href="#linear-gradient-2"/><linearGradient id="linear-gradient-6" x1="51.16" y1="1526.78" x2="51.16" y2="1533.6" gradientTransform="matrix(0, 1, 1, 0, -1480.9, -40.6)" xlink:href="#linear-gradient-2"/><linearGradient id="linear-gradient-7" x1="52.54" y1="1526.78" x2="52.54" y2="1533.6" gradientTransform="matrix(0, 1, 1, 0, -1479.54, -41.74)" xlink:href="#linear-gradient-2"/><linearGradient id="linear-gradient-8" x1="44.26" y1="1526.78" x2="44.26" y2="1533.6" gradientTransform="matrix(0, 1, 1, 0, -1487.69, -34.9)" xlink:href="#linear-gradient-2"/><linearGradient id="linear-gradient-9" x1="42.88" y1="1526.78" x2="42.88" y2="1533.6" gradientTransform="matrix(0, 1, 1, 0, -1489.05, -33.76)" xlink:href="#linear-gradient-2"/><linearGradient id="linear-gradient-10" x1="41.51" y1="1526.78" x2="41.51" y2="1533.6" gradientTransform="matrix(0, 1, 1, 0, -1490.4, -32.62)" xlink:href="#linear-gradient-2"/><linearGradient id="linear-gradient-11" x1="47.02" y1="1531.15" x2="47.02" y2="1519.36" gradientTransform="matrix(0.98, 0.17, 0.17, -0.98, -266.8, 1508.62)" gradientUnits="userSpaceOnUse"><stop offset="0" stop-color="#e09700"/><stop offset="0.07" stop-color="#e5a70b"/><stop offset="0.14" stop-color="#e9b213"/><stop offset="0.23" stop-color="#eab616"/><stop offset="0.23" stop-color="#ebb717"/><stop offset="0.32" stop-color="#f6c925"/><stop offset="0.42" stop-color="#fdd32d"/><stop offset="0.54" stop-color="#ffd630"/><stop offset="0.65" stop-color="#ffd323"/><stop offset="0.85" stop-color="#ffcf11"/><stop offset="1" stop-color="#ffce0b"/></linearGradient><linearGradient id="linear-gradient-12" x1="47.02" y1="1520.39" x2="47.02" y2="1531.86" gradientTransform="matrix(0.98, 0.17, 0.17, -0.98, -266.8, 1508.62)" xlink:href="#linear-gradient-2"/><linearGradient id="linear-gradient-13" x1="51.73" y1="-701.28" x2="45.52" y2="-707.71" gradientTransform="translate(-124.41 701.11) rotate(10)" gradientUnits="userSpaceOnUse"><stop offset="0.12" stop-color="#ffb600"/><stop offset="0.43" stop-color="#ffb800"/><stop offset="0.54" stop-color="#ffbf00"/><stop offset="0.62" stop-color="#ffca00"/><stop offset="0.66" stop-color="#ffd500"/><stop offset="0.69" stop-color="#fdd100"/><stop offset="0.88" stop-color="#f3b800"/><stop offset="1" stop-color="#efaf00"/></linearGradient><linearGradient id="linear-gradient-14" x1="45.15" y1="1526.12" x2="48.9" y2="1526.12" gradientTransform="matrix(0.98, 0.17, 0.17, -0.98, -266.8, 1508.62)" gradientUnits="userSpaceOnUse"><stop offset="0" stop-color="#b77700"/><stop offset="1" stop-color="#ffc629"/></linearGradient><radialGradient id="radial-gradient-2" cx="33.83" cy="-6126.69" r="5.99" gradientTransform="matrix(1, -0.01, 0, 0.17, -2.09, 1061.39)" xlink:href="#radial-gradient"/><linearGradient id="linear-gradient-15" x1="20.11" y1="1523.08" x2="32.56" y2="1523.08" gradientTransform="matrix(0.98, -0.17, -0.17, -0.98, 261.88, 1517.67)" xlink:href="#linear-gradient"/><clipPath id="clip-path-2"><circle class="cls-1" cx="23.34" cy="13.15" r="6.23"/></clipPath><linearGradient id="linear-gradient-16" x1="26.33" y1="1523.08" x2="26.33" y2="1529.95" gradientTransform="matrix(1, 0, 0, -1, -3.59, 1536.29)" xlink:href="#linear-gradient-2"/><linearGradient id="linear-gradient-17" x1="27.72" y1="1523.08" x2="27.72" y2="1529.95" gradientTransform="matrix(1, 0, 0, -1, -3.62, 1536.04)" xlink:href="#linear-gradient-2"/><linearGradient id="linear-gradient-18" x1="24.94" y1="1523.08" x2="24.94" y2="1529.95" gradientTransform="matrix(1, 0, 0, -1, -3.57, 1536.53)" xlink:href="#linear-gradient-2"/><linearGradient id="linear-gradient-19" x1="29.11" y1="1523.08" x2="29.11" y2="1529.95" gradientTransform="matrix(1, 0, 0, -1, -3.64, 1535.8)" xlink:href="#linear-gradient-2"/><linearGradient id="linear-gradient-20" x1="30.5" y1="1523.08" x2="30.5" y2="1529.95" gradientTransform="matrix(1, 0, 0, -1, -3.66, 1535.56)" xlink:href="#linear-gradient-2"/><linearGradient id="linear-gradient-21" x1="31.89" y1="1523.08" x2="31.89" y2="1529.95" gradientTransform="matrix(1, 0, 0, -1, -3.68, 1535.32)" xlink:href="#linear-gradient-2"/><linearGradient id="linear-gradient-22" x1="23.55" y1="1523.08" x2="23.55" y2="1529.95" gradientTransform="matrix(1, 0, 0, -1, -3.55, 1536.77)" xlink:href="#linear-gradient-2"/><linearGradient id="linear-gradient-23" x1="22.17" y1="1523.08" x2="22.17" y2="1529.95" gradientTransform="matrix(1, 0, 0, -1, -3.53, 1537.01)" xlink:href="#linear-gradient-2"/><linearGradient id="linear-gradient-24" x1="20.78" y1="1523.08" x2="20.78" y2="1529.95" gradientTransform="matrix(1, 0, 0, -1, -3.51, 1537.25)" xlink:href="#linear-gradient-2"/><linearGradient id="linear-gradient-25" x1="26.33" y1="1527.48" x2="26.33" y2="1515.6" gradientTransform="matrix(0.98, -0.17, -0.17, -0.98, 261.88, 1517.67)" xlink:href="#linear-gradient-11"/><linearGradient id="linear-gradient-26" x1="26.33" y1="1516.64" x2="26.33" y2="1528.19" gradientTransform="matrix(0.98, -0.17, -0.17, -0.98, 261.88, 1517.67)" xlink:href="#linear-gradient-2"/><linearGradient id="linear-gradient-27" x1="31.09" y1="-697.54" x2="24.83" y2="-704.01" gradientTransform="translate(119.5 710.16) rotate(-10)" xlink:href="#linear-gradient-13"/><linearGradient id="linear-gradient-28" x1="24.45" y1="1522.41" x2="28.23" y2="1522.41" gradientTransform="matrix(0.98, -0.17, -0.17, -0.98, 261.88, 1517.67)" xlink:href="#linear-gradient-14"/><radialGradient id="radial-gradient-3" cx="42.14" cy="-6337.25" r="6.65" gradientTransform="matrix(1, -0.01, 0, 0.17, -0.22, 1096.36)" xlink:href="#radial-gradient"/><linearGradient id="linear-gradient-29" x1="27.39" y1="1559.67" x2="41.23" y2="1559.67" gradientTransform="matrix(1, 0, 0, -1, 0, 1571.1)" xlink:href="#linear-gradient"/><clipPath id="clip-path-3"><circle class="cls-1" cx="34.31" cy="11.43" r="6.92"/></clipPath><linearGradient id="linear-gradient-30" x1="34.31" y1="1559.67" x2="34.31" y2="1567.3" gradientTransform="matrix(1, 0, 0, -1, 0, 1571.1)" xlink:href="#linear-gradient-2"/><linearGradient id="linear-gradient-31" x1="35.85" y1="1559.67" x2="35.85" y2="1567.3" gradientTransform="matrix(1, 0, 0, -1, 0, 1571.1)" xlink:href="#linear-gradient-2"/><linearGradient id="linear-gradient-32" x1="32.76" y1="1559.67" x2="32.76" y2="1567.3" gradientTransform="matrix(1, 0, 0, -1, 0, 1571.1)" xlink:href="#linear-gradient-2"/><linearGradient id="linear-gradient-33" x1="37.4" y1="1559.67" x2="37.4" y2="1567.3" gradientTransform="matrix(1, 0, 0, -1, 0, 1571.1)" xlink:href="#linear-gradient-2"/><linearGradient id="linear-gradient-34" x1="38.94" y1="1559.67" x2="38.94" y2="1567.3" gradientTransform="matrix(1, 0, 0, -1, 0, 1571.1)" xlink:href="#linear-gradient-2"/><linearGradient id="linear-gradient-35" x1="40.48" y1="1559.67" x2="40.48" y2="1567.3" gradientTransform="matrix(1, 0, 0, -1, 0, 1571.1)" xlink:href="#linear-gradient-2"/><linearGradient id="linear-gradient-36" x1="31.22" y1="1559.67" x2="31.22" y2="1567.3" gradientTransform="matrix(1, 0, 0, -1, 0, 1571.1)" xlink:href="#linear-gradient-2"/><linearGradient id="linear-gradient-37" x1="29.68" y1="1559.67" x2="29.68" y2="1567.3" gradientTransform="matrix(1, 0, 0, -1, 0, 1571.1)" xlink:href="#linear-gradient-2"/><linearGradient id="linear-gradient-38" x1="28.13" y1="1559.67" x2="28.13" y2="1567.3" gradientTransform="matrix(1, 0, 0, -1, 0, 1571.1)" xlink:href="#linear-gradient-2"/><linearGradient id="linear-gradient-39" x1="34.31" y1="1564.56" x2="34.31" y2="1551.35" gradientTransform="matrix(1, 0, 0, -1, 0, 1571.1)" xlink:href="#linear-gradient-11"/><linearGradient id="linear-gradient-40" x1="34.31" y1="1552.51" x2="34.31" y2="1565.35" gradientTransform="matrix(1, 0, 0, -1, 0, 1571.1)" xlink:href="#linear-gradient-2"/><linearGradient id="linear-gradient-41" x1="39.59" y1="-733.5" x2="32.63" y2="-740.7" gradientTransform="translate(0 751.13)" xlink:href="#linear-gradient-13"/><linearGradient id="linear-gradient-42" x1="32.22" y1="1558.93" x2="36.42" y2="1558.93" gradientTransform="matrix(1, 0, 0, -1, 0, 1571.1)" xlink:href="#linear-gradient-14"/><radialGradient id="radial-gradient-4" cx="34.71" cy="18.17" r="21.24" gradientTransform="translate(0 13.75) scale(1 0.17)" gradientUnits="userSpaceOnUse"><stop offset="0.42" stop-color="#333"/><stop offset="0.66" stop-color="#383838" stop-opacity="0.63"/><stop offset="1" stop-color="#404040" stop-opacity="0"/></radialGradient><radialGradient id="radial-gradient-5" cx="34.71" cy="35.85" r="22.82" gradientTransform="translate(0 30.47) scale(1 0.15)" gradientUnits="userSpaceOnUse"><stop offset="0"/><stop offset="0.87" stop-color="#2a2a2a" stop-opacity="0.34"/><stop offset="1" stop-color="#404040" stop-opacity="0"/></radialGradient><linearGradient id="linear-gradient-43" x1="13.61" y1="16.99" x2="13.61" y2="34.85" gradientUnits="userSpaceOnUse"><stop offset="0.05" stop-color="#b28600"/><stop offset="0.38" stop-color="#e4a900"/><stop offset="0.53" stop-color="#ffc533"/><stop offset="0.69" stop-color="#eea700"/><stop offset="1" stop-color="#b28600"/></linearGradient><linearGradient id="linear-gradient-44" x1="54.64" y1="17" x2="54.64" y2="34.86" xlink:href="#linear-gradient-43"/><linearGradient id="linear-gradient-45" x1="34.08" y1="15.71" x2="34.08" y2="36.19" gradientUnits="userSpaceOnUse"><stop offset="0" stop-color="#f79307"/><stop offset="0.22" stop-color="#ce7b06"/><stop offset="0.33" stop-color="#f59207"/><stop offset="0.61" stop-color="#fc9608"/><stop offset="0.73" stop-color="#de8407"/><stop offset="0.82" stop-color="#e98b07"/><stop offset="1" stop-color="#cc7a06"/></linearGradient><linearGradient id="linear-gradient-46" x1="34.08" y1="15.59" x2="34.08" y2="35.83" gradientUnits="userSpaceOnUse"><stop offset="0" stop-color="#de9400"/><stop offset="0.01" stop-color="#e69d00"/><stop offset="0.05" stop-color="#f8b100"/><stop offset="0.07" stop-color="#ffb800"/><stop offset="0.3" stop-color="#ffbf00"/><stop offset="0.41" stop-color="#ffca00"/><stop offset="0.51" stop-color="#fff3ba"/><stop offset="0.62" stop-color="#fdd100"/><stop offset="0.78" stop-color="#f3b800"/><stop offset="0.93" stop-color="#a67800"/></linearGradient><linearGradient id="linear-gradient-47" x1="34.08" y1="15.16" x2="34.08" y2="36.06" gradientUnits="userSpaceOnUse"><stop offset="0" stop-color="#6a6a6a"/><stop offset="0.18" stop-color="#939393"/><stop offset="0.27" stop-color="#727272"/><stop offset="0.39" stop-color="#c8c8c8"/><stop offset="0.67" stop-color="#b6b6b6"/><stop offset="0.78" stop-color="#797979"/><stop offset="1" stop-color="#bababa"/></linearGradient><linearGradient id="linear-gradient-48" x1="34.08" y1="15.71" x2="34.08" y2="35.53" gradientUnits="userSpaceOnUse"><stop offset="0" stop-color="#d9d9d9"/><stop offset="0.22" stop-color="#959595"/><stop offset="0.33" stop-color="#d3d3d3"/><stop offset="0.61" stop-color="#e6e6e6"/><stop offset="0.73" stop-color="#909090"/><stop offset="0.82" stop-color="#afafaf"/><stop offset="1" stop-color="#878787"/></linearGradient><linearGradient id="linear-gradient-49" x1="40.5" y1="18.24" x2="51.05" y2="18.24" gradientUnits="userSpaceOnUse"><stop offset="0" stop-color="#848484"/><stop offset="0.18" stop-color="#adadad"/><stop offset="0.27" stop-color="#8e8e8e"/><stop offset="0.39" stop-color="#e4e4e4"/><stop offset="0.67" stop-color="#d1d1d1"/><stop offset="0.78" stop-color="#939393"/><stop offset="1" stop-color="#d6d6d6"/></linearGradient><linearGradient id="linear-gradient-50" x1="28.72" y1="18.24" x2="39.28" y2="18.24" xlink:href="#linear-gradient-49"/><linearGradient id="linear-gradient-51" x1="16.95" y1="18.24" x2="27.5" y2="18.24" xlink:href="#linear-gradient-49"/><linearGradient id="linear-gradient-52" x1="40.5" y1="33.4" x2="51.05" y2="33.4" xlink:href="#linear-gradient-49"/><linearGradient id="linear-gradient-53" x1="28.72" y1="33.4" x2="39.28" y2="33.4" xlink:href="#linear-gradient-49"/><linearGradient id="linear-gradient-54" x1="16.95" y1="33.4" x2="27.51" y2="33.4" xlink:href="#linear-gradient-49"/><radialGradient id="radial-gradient-6" cx="53.34" cy="49.47" r="3.48" gradientTransform="matrix(-0.03, -1, 0.26, -0.01, 43.83, 75.06)" gradientUnits="userSpaceOnUse"><stop offset="0.04" stop-color="#141414"/><stop offset="1" stop-color="#141414" stop-opacity="0"/></radialGradient><linearGradient id="linear-gradient-55" x1="52.45" y1="18.9" x2="56.27" y2="20.24" gradientUnits="userSpaceOnUse"><stop offset="0" stop-color="#c5c5c5"/><stop offset="0.2" stop-color="#eee"/><stop offset="0.46" stop-color="#bababa"/><stop offset="0.73" stop-color="#636363"/><stop offset="0.89" stop-color="#797979"/><stop offset="0.91" stop-color="#757575"/><stop offset="0.94" stop-color="#686868"/><stop offset="0.97" stop-color="#545454"/><stop offset="1" stop-color="#3b3b3b"/></linearGradient><linearGradient id="linear-gradient-56" x1="54.53" y1="20.71" x2="54.55" y2="18.5" gradientUnits="userSpaceOnUse"><stop offset="0" stop-color="#3b3b3b"/><stop offset="0.03" stop-color="#545454"/><stop offset="0.06" stop-color="#686868"/><stop offset="0.09" stop-color="#757575"/><stop offset="0.11" stop-color="#797979"/><stop offset="0.27" stop-color="#636363"/><stop offset="0.54" stop-color="#bababa"/><stop offset="0.8" stop-color="#eee"/><stop offset="1" stop-color="#c5c5c5"/></linearGradient><linearGradient id="linear-gradient-57" x1="56.89" y1="15.57" x2="55.49" y2="15.06" gradientUnits="userSpaceOnUse"><stop offset="0.12" stop-color="#454545"/><stop offset="0.65" stop-color="gray"/><stop offset="0.92" stop-color="#c7c7c7"/></linearGradient><linearGradient id="linear-gradient-58" x1="45.08" y1="22.62" x2="47.42" y2="28.06" gradientTransform="matrix(1, 0, 0, 1, 0, 0)" xlink:href="#linear-gradient-13"/><linearGradient id="linear-gradient-59" x1="32.94" y1="22.62" x2="35.27" y2="28.06" gradientTransform="matrix(1, 0, 0, 1, 0, 0)" xlink:href="#linear-gradient-13"/><linearGradient id="linear-gradient-60" x1="20.8" y1="22.62" x2="23.13" y2="28.06" gradientTransform="matrix(1, 0, 0, 1, 0, 0)" xlink:href="#linear-gradient-13"/><radialGradient id="radial-gradient-7" cx="57.24" cy="6.93" r="4.85" gradientUnits="userSpaceOnUse"><stop offset="0.1" stop-color="#fff3ba"/><stop offset="0.28" stop-color="#fdd100"/><stop offset="0.57" stop-color="#f3b800"/><stop offset="0.78" stop-color="#c78700"/></radialGradient><linearGradient id="linear-gradient-61" x1="58.27" y1="9.91" x2="58.27" y2="7.4" gradientUnits="userSpaceOnUse"><stop offset="0"/><stop offset="1" stop-color="#fff"/></linearGradient></defs><g class="cls-2"><g id="Layer_1" data-name="Layer 1"><g id="Layer_2" data-name="Layer 2"><g id="Layer_3" data-name="Layer 3"><rect class="cls-3" x="0.25" y="0.25" width="68.92" height="52.11"/><path class="cls-4" d="M68.92.5V52.11H.5V.5H68.92m.5-.5H0V52.61H69.42Z"/></g></g><ellipse class="cls-5" cx="43.56" cy="19.54" rx="1.21" ry="6.56" transform="translate(16.75 59.05) rotate(-80)"/><circle class="cls-6" cx="44.63" cy="13.2" r="6.18"/><g class="cls-7"><rect class="cls-8" x="41.81" y="9.53" width="6.82" height="0.62" transform="translate(27.68 52.66) rotate(-80)"/><rect class="cls-9" x="43.17" y="9.77" width="6.82" height="0.62" transform="translate(28.56 54.2) rotate(-80)"/><rect class="cls-10" x="40.45" y="9.29" width="6.82" height="0.62" transform="translate(26.79 51.13) rotate(-80)"/><rect class="cls-11" x="44.52" y="10.01" width="6.82" height="0.62" transform="translate(29.45 55.73) rotate(-80)"/><rect class="cls-12" x="45.88" y="10.25" width="6.82" height="0.62" transform="translate(30.34 57.27) rotate(-80)"/><rect class="cls-13" x="47.24" y="10.49" width="6.82" height="0.62" transform="translate(31.22 58.8) rotate(-80)"/><rect class="cls-14" x="39.09" y="9.05" width="6.82" height="0.62" transform="translate(25.9 49.59) rotate(-80)"/><rect class="cls-15" x="37.73" y="8.81" width="6.82" height="0.62" transform="translate(25.02 48.06) rotate(-80)"/><rect class="cls-16" x="36.38" y="8.57" width="6.82" height="0.62" transform="translate(24.13 46.52) rotate(-80)"/></g><circle class="cls-17" cx="44.51" cy="13.85" r="6.18"/><circle class="cls-18" cx="44.51" cy="13.85" r="5.73"/><ellipse class="cls-19" cx="44.53" cy="13.74" rx="5.63" ry="5.73" transform="translate(23.27 55.21) rotate(-80)"/><circle class="cls-20" cx="44.51" cy="13.85" r="5.03"/><polygon class="cls-21" points="43.21 11.22 44.39 11.43 44.54 10.55 45.64 10.74 45.48 11.62 46.71 11.84 46.55 12.72 44.14 15.03 46.15 15.38 45.95 16.54 44.64 16.31 44.5 17.15 43.41 16.96 43.56 16.14 42.25 15.9 42.4 15.05 44.91 12.7 43.01 12.37 43.21 11.22"/><polygon class="cls-22" points="43.17 11.47 44.34 11.67 44.5 10.8 45.59 10.99 45.44 11.87 46.67 12.08 46.51 12.97 44.09 15.28 46.11 15.63 45.9 16.79 44.6 16.56 44.45 17.4 43.37 17.21 43.51 16.38 42.21 16.15 42.36 15.3 44.86 12.95 42.97 12.62 43.17 11.47"/><ellipse class="cls-23" cx="24.52" cy="19.53" rx="6.62" ry="1.22" transform="translate(-3.02 4.55) rotate(-10)"/><circle class="cls-24" cx="23.34" cy="13.15" r="6.23"/><g class="cls-25"><rect class="cls-26" x="22.43" y="6.33" width="0.62" height="6.87" transform="translate(-1.35 4.1) rotate(-10)"/><rect class="cls-27" x="23.8" y="6.09" width="0.62" height="6.87" transform="translate(-1.29 4.33) rotate(-10)"/><rect class="cls-28" x="21.06" y="6.57" width="0.62" height="6.87" transform="translate(-1.41 3.86) rotate(-10)"/><rect class="cls-29" x="25.16" y="5.85" width="0.62" height="6.87" transform="translate(-1.23 4.57) rotate(-10)"/><rect class="cls-30" x="26.53" y="5.61" width="0.62" height="6.87" transform="translate(-1.16 4.8) rotate(-10)"/><rect class="cls-31" x="27.9" y="5.37" width="0.62" height="6.87" transform="translate(-1.1 5.03) rotate(-10)"/><rect class="cls-32" x="19.69" y="6.81" width="0.62" height="6.87" transform="translate(-1.48 3.63) rotate(-10)"/><rect class="cls-33" x="18.32" y="7.06" width="0.62" height="6.87" transform="translate(-1.54 3.4) rotate(-10)"/><rect class="cls-34" x="16.95" y="7.3" width="0.62" height="6.87" transform="translate(-1.6 3.16) rotate(-10)"/></g><circle class="cls-35" cx="23.45" cy="13.81" r="6.23"/><circle class="cls-36" cx="23.45" cy="13.81" r="5.78"/><ellipse class="cls-19" cx="23.43" cy="13.7" rx="5.78" ry="5.67" transform="translate(-2.02 4.28) rotate(-10)"/><circle class="cls-37" cx="23.45" cy="13.81" r="5.07"/><polygon class="cls-38" points="21.32 11.77 22.5 11.56 22.34 10.67 23.45 10.48 23.61 11.36 24.84 11.14 25 12.04 23.5 15.05 25.53 14.7 25.74 15.87 24.43 16.1 24.57 16.94 23.48 17.14 23.34 16.3 22.02 16.54 21.87 15.68 23.43 12.59 21.52 12.92 21.32 11.77"/><polygon class="cls-22" points="21.36 12.02 22.54 11.81 22.39 10.92 23.49 10.73 23.65 11.61 24.88 11.39 25.04 12.29 23.55 15.3 25.58 14.95 25.78 16.12 24.47 16.35 24.62 17.19 23.53 17.39 23.38 16.55 22.07 16.79 21.92 15.93 23.48 12.84 21.56 13.17 21.36 12.02"/><ellipse class="cls-39" cx="34.37" cy="18.63" rx="7.35" ry="1.35"/><circle class="cls-40" cx="34.31" cy="11.43" r="6.92"/><g class="cls-41"><rect class="cls-42" x="33.96" y="3.79" width="0.69" height="7.64"/><rect class="cls-43" x="35.51" y="3.79" width="0.69" height="7.64"/><rect class="cls-44" x="32.42" y="3.79" width="0.69" height="7.64"/><rect class="cls-45" x="37.05" y="3.79" width="0.69" height="7.64"/><rect class="cls-46" x="38.59" y="3.79" width="0.69" height="7.64"/><rect class="cls-47" x="40.14" y="3.79" width="0.69" height="7.64"/><rect class="cls-48" x="30.87" y="3.79" width="0.69" height="7.64"/><rect class="cls-49" x="29.33" y="3.79" width="0.69" height="7.64"/><rect class="cls-50" x="27.79" y="3.79" width="0.69" height="7.64"/></g><circle class="cls-51" cx="34.31" cy="12.16" r="6.92"/><circle class="cls-52" cx="34.31" cy="12.16" r="6.42"/><ellipse class="cls-19" cx="34.31" cy="12.05" rx="6.42" ry="6.3"/><circle class="cls-53" cx="34.31" cy="12.16" r="5.63"/><polygon class="cls-54" points="32.37 9.52 33.7 9.52 33.7 8.52 34.95 8.52 34.95 9.52 36.34 9.52 36.34 10.53 34.13 13.54 36.41 13.54 36.41 14.86 34.93 14.86 34.93 15.81 33.7 15.81 33.7 14.88 32.22 14.88 32.22 13.91 34.52 10.82 32.37 10.82 32.37 9.52"/><polygon class="cls-22" points="32.37 9.8 33.7 9.8 33.7 8.8 34.95 8.8 34.95 9.8 36.34 9.8 36.34 10.81 34.13 13.82 36.41 13.82 36.41 15.14 34.93 15.14 34.93 16.09 33.7 16.09 33.7 15.16 32.22 15.16 32.22 14.19 34.52 11.11 32.37 11.11 32.37 9.8"/><ellipse class="cls-55" cx="34.71" cy="16.87" rx="32.62" ry="7.08"/><ellipse class="cls-56" cx="34.71" cy="35.85" rx="34.71" ry="7.56"/><g id="_1" data-name="1"><path class="cls-57" d="M54.72,16.87H13.32c-1.39,0-2.52,4-2.52,8.94s1.13,9,2.52,9h41.4c1.39,0,2.52-4,2.52-8.95S56.11,16.87,54.72,16.87Z"/><path class="cls-58" d="M32.39,16.88h-15c-1.38,0-2.49,4-2.49,8.94s1.11,8.94,2.49,8.94h15Z"/><path class="cls-59" d="M54.5,16.88H44.22V34.76H54.5c1.38,0,2.49-4,2.49-8.94S55.88,16.88,54.5,16.88Z"/><path class="cls-59" d="M13.66,16.88H23.94V34.76H13.66c-1.37,0-2.49-4-2.49-8.94S12.29,16.88,13.66,16.88Z"/><path class="cls-60" d="M15.27,16.87a27.93,27.93,0,0,0-1.15,8.94,27.93,27.93,0,0,0,1.15,8.94h-.83c-1.37,0-2.49-4-2.49-8.94s1.12-8.94,2.49-8.94Z"/><path class="cls-61" d="M56.3,25.82c0,4.94-1.12,8.94-2.49,8.94H53a27.93,27.93,0,0,0,1.15-8.94A27.93,27.93,0,0,0,53,16.88h.83C55.18,16.88,56.3,20.88,56.3,25.82Z"/><path class="cls-62" d="M51.14,15.56H17c-1.15,0-2.08,4.6-2.08,10.26S15.87,36.07,17,36.07H51.14c1.14,0,2.07-4.59,2.07-10.25S52.28,15.56,51.14,15.56Z"/><path class="cls-63" d="M51.36,15.56H16.79c-1.16,0-2.1,4.6-2.1,10.26s.94,10.25,2.1,10.25H51.36c1.16,0,2.11-4.59,2.11-10.25S52.52,15.56,51.36,15.56Z"/><path class="cls-64" d="M50.77,33.6H40.93a103.61,103.61,0,0,0,0-15.56h9.84a13.12,13.12,0,0,1,.56,3.89c.09,1.3.09,6.48,0,7.78A13.12,13.12,0,0,1,50.77,33.6ZM39,18H29.16a139.25,139.25,0,0,0,0,15.56H39A144.22,144.22,0,0,0,39,18ZM27.22,18H17.38a13.46,13.46,0,0,0-.56,3.89c-.09,1.3-.09,6.48,0,7.78a13.46,13.46,0,0,0,.56,3.89h9.84A103.61,103.61,0,0,1,27.22,18Z"/><path class="cls-65" d="M41.39,33.19a113.43,113.43,0,0,0,0-14.75h9.09a12.38,12.38,0,0,1,.42,3l0,.55c.08,1.26.08,6.46,0,7.72l0,.55a12.22,12.22,0,0,1-.42,3Zm-11.87,0c-.23-2.89-.23-11.85,0-14.75h9.11c.23,2.9.23,11.86,0,14.75Zm-11.85,0a12.22,12.22,0,0,1-.42-3l0-.55c-.08-1.26-.08-6.46,0-7.72l0-.55a12.38,12.38,0,0,1,.42-3h9.1a110,110,0,0,0,0,14.75Z"/><polygon class="cls-66" points="40.93 18.04 41.39 18.44 50.48 18.44 50.77 18.04 40.93 18.04"/><polygon class="cls-67" points="29.16 18.04 29.52 18.44 38.63 18.44 39 18.04 29.16 18.04"/><polygon class="cls-68" points="17.38 18.04 17.75 18.44 26.77 18.44 27.22 18.04 17.38 18.04"/><polygon class="cls-69" points="40.93 33.6 41.39 33.2 50.48 33.2 50.77 33.6 40.93 33.6"/><polygon class="cls-70" points="39 33.6 38.63 33.2 29.52 33.2 29.16 33.6 39 33.6"/><polygon class="cls-71" points="26.77 33.2 27.22 33.6 17.38 33.6 17.67 33.2 26.77 33.2"/><g class="cls-72"><path class="cls-73" d="M50.77,18l0,0,.05.12.07.2c0,.08,0,.18.07.28s.09.47.13.76.09.63.13,1,.07.76.11,1.18.06.87.09,1.33.05.93.06,1.41,0,1,0,1.47,0,1,0,1.46,0,1,0,1.42,0,.91-.07,1.33c0,.21,0,.41,0,.61s0,.39-.06.57c0,.37-.09.7-.14,1s-.12.55-.18.76-.06.19-.08.27l0,.11,0,.09-.08.16.07-.16,0-.09,0-.11c0-.08,0-.17.08-.27s.1-.47.15-.76.05-.31.07-.47,0-.34.05-.53,0-.37,0-.57,0-.4,0-.61c0-.42,0-.86.05-1.32s0-.94,0-1.42,0-1,0-1.46l0-1.46c0-.48,0-1-.06-1.42s-.05-.9-.07-1.32-.06-.82-.1-1.18c0-.19,0-.36,0-.53s0-.32-.05-.47S51,18.9,51,18.68s0-.19-.06-.27a1.91,1.91,0,0,0-.06-.21l-.05-.12Z"/></g><g class="cls-72"><path class="cls-73" d="M40.87,18l0,.17q0,.09,0,.21l0,.28c0,.22,0,.47.07.77s0,.63.06,1,0,.77,0,1.18l0,1.32q0,.69,0,1.41c0,.48,0,1,0,1.45v1.45c0,.48,0,1,0,1.41s0,.9,0,1.32,0,.81,0,1.18-.05.7-.07,1,0,.29,0,.42l0,.35c0,.05,0,.1,0,.15l0,.13,0,.21,0,.17,0-.17,0-.21,0-.13a.76.76,0,0,0,0-.15l0-.36a2.54,2.54,0,0,0,0-.41l0-.47c0-.17,0-.34,0-.52,0-.37,0-.76,0-1.18s0-.86,0-1.32,0-.93,0-1.41,0-1,0-1.45,0-1,0-1.45,0-.95,0-1.41,0-.9,0-1.31,0-.82,0-1.18,0-.7,0-1,0-.55,0-.76l0-.29c0-.08,0-.15,0-.21Z"/></g><g class="cls-72"><path class="cls-73" d="M38.9,18l0,.17q0,.09,0,.21l0,.28c0,.22,0,.47.07.77s0,.63.06,1,0,.77.05,1.18l0,1.32,0,1.41c0,.48,0,1,0,1.45v1.45c0,.48,0,1,0,1.41s0,.9,0,1.32,0,.81-.05,1.18,0,.7-.07,1,0,.29,0,.42l0,.35a.77.77,0,0,1,0,.15l0,.13,0,.21,0,.17,0-.17,0-.21,0-.13a.76.76,0,0,0,0-.15l0-.36c0-.12,0-.26,0-.41l0-.47c0-.17,0-.34,0-.52,0-.37,0-.76,0-1.18s0-.86,0-1.32,0-.93,0-1.41,0-1,0-1.45,0-1,0-1.45,0-.95,0-1.41l0-1.31c0-.42,0-.82,0-1.18s0-.7,0-1,0-.55,0-.76l0-.29c0-.08,0-.15,0-.21Z"/></g><g class="cls-72"><path class="cls-73" d="M17.28,18v0a.73.73,0,0,0-.05.12,1.91,1.91,0,0,0-.06.21q0,.12-.06.27c0,.22-.08.47-.12.77s0,.3-.05.47,0,.34-.06.53c0,.36-.06.76-.09,1.18s-.05.86-.08,1.32,0,.94-.05,1.42,0,1,0,1.46,0,1,0,1.46,0,1,0,1.42,0,.9.06,1.32c0,.21,0,.42,0,.61s0,.39.05.57,0,.36.06.53,0,.32.07.47a5.67,5.67,0,0,0,.15.76,1.73,1.73,0,0,0,.08.27l0,.11,0,.09.07.16-.07-.16a.79.79,0,0,1,0-.09l0-.11L17,33a6.83,6.83,0,0,1-.17-.76c-.05-.29-.11-.62-.15-1,0-.18,0-.37,0-.57s0-.4-.05-.61c0-.42-.06-.87-.07-1.33s0-.93,0-1.42,0-1,0-1.46,0-1,0-1.47,0-.95.07-1.41.05-.91.09-1.33.07-.81.11-1.18.08-.7.12-1,.1-.55.14-.76.05-.2.07-.28.05-.14.06-.2a.67.67,0,0,1,.06-.12Z"/></g><g class="cls-72"><path class="cls-73" d="M27.19,18l0,.17q0,.09,0,.21l0,.29c0,.21,0,.47-.05.76s0,.63,0,1,0,.76,0,1.18L27,23c0,.46,0,.93,0,1.41s0,1,0,1.45,0,1,0,1.45,0,1,0,1.41,0,.9,0,1.32,0,.81,0,1.18l0,.52,0,.47c0,.15,0,.29,0,.41l0,.36c0,.05,0,.1,0,.15l0,.13,0,.21,0,.17,0-.17,0-.21,0-.13a.77.77,0,0,0,0-.15l0-.35c0-.13,0-.27-.05-.42s0-.63-.06-1,0-.76-.05-1.18,0-.86,0-1.32,0-.93,0-1.41,0-1,0-1.45,0-1,0-1.45,0-.95,0-1.41l.05-1.32c0-.41,0-.81,0-1.18s0-.69.06-1,0-.55.06-.77l0-.28c0-.08,0-.15,0-.21Z"/></g><g class="cls-72"><path class="cls-73" d="M29.16,18l0,.17q0,.09,0,.21l0,.29c0,.21,0,.47,0,.76s0,.63,0,1,0,.76,0,1.18l0,1.31c0,.46,0,.93,0,1.41s0,1,0,1.45,0,1,0,1.45,0,1,0,1.41,0,.9,0,1.32,0,.81,0,1.18l0,.52,0,.47c0,.15,0,.29,0,.41l0,.36a.76.76,0,0,1,0,.15l0,.13,0,.21,0,.17,0-.17,0-.21,0-.13c0-.05,0-.1,0-.15l0-.35c0-.13,0-.27,0-.42s-.05-.63-.06-1,0-.76,0-1.18,0-.86,0-1.32,0-.93,0-1.41,0-1,0-1.45,0-1,0-1.45,0-.95,0-1.41l0-1.32c0-.41,0-.81.06-1.18s0-.69.06-1,0-.55.06-.77l0-.28c0-.08,0-.15,0-.21Z"/></g><ellipse class="cls-74" cx="54.58" cy="21.04" rx="1.34" ry="5.19" transform="translate(-1.91 5.84) rotate(-6.02)"/><path class="cls-75" d="M54.54,20.61a1,1,0,1,1,0-1.95,1,1,0,1,1,0,1.95Z"/><path class="cls-76" d="M55.46,19.64a.92.92,0,1,1-.92-.87A.89.89,0,0,1,55.46,19.64Z"/><path class="cls-77" d="M54.18,20.42a1,1,0,0,0,1.2-.43l2.95-9.29s0-.44-.31-.56-.62.27-.62.27L53.75,19.2A.86.86,0,0,0,54.18,20.42Z"/></g><polygon class="cls-78" points="46.16 27.4 44.19 28.44 44.56 26.24 42.96 24.68 45.17 24.36 46.16 22.35 47.15 24.36 49.36 24.68 47.76 26.24 48.14 28.44 46.16 27.4"/><path class="cls-79" d="M46.16,22.69l.89,1.81,2,.28L47.6,26.19l.34,2-1.78-.94-1.78.94.34-2-1.43-1.41,2-.28.89-1.81m0-.67-.27.54-.82,1.66-1.83.27-.6.08.44.43,1.32,1.29-.31,1.83-.1.6.53-.29,1.64-.86,1.64.86.54.29-.1-.6-.32-1.83L49.25,25l.44-.43-.61-.08-1.83-.27-.82-1.66L46.16,22Z"/><polygon class="cls-80" points="34.02 27.4 32.04 28.44 32.42 26.24 30.82 24.68 33.03 24.36 34.02 22.35 35.01 24.36 37.22 24.68 35.62 26.24 36 28.44 34.02 27.4"/><path class="cls-79" d="M34,22.69l.89,1.81,2,.28-1.44,1.41.34,2L34,27.23l-1.78.94.34-2-1.44-1.41,2-.28L34,22.69M34,22l-.27.54-.82,1.66-1.83.27-.6.08.43.43,1.33,1.29L32,28.12l-.11.6.54-.29L34,27.57l1.64.86.54.29-.1-.6-.32-1.83L37.11,25l.43-.43-.6-.08-1.83-.27-.82-1.66L34,22Z"/><polygon class="cls-81" points="21.88 27.4 19.9 28.44 20.28 26.24 18.68 24.68 20.89 24.36 21.88 22.35 22.87 24.36 25.08 24.68 23.48 26.24 23.86 28.44 21.88 27.4"/><path class="cls-79" d="M21.88,22.69l.89,1.81,2,.28-1.44,1.41.34,2-1.78-.94-1.78.94.34-2L19,24.78l2-.28.89-1.81m0-.67-.27.54-.82,1.66L19,24.49l-.6.08.43.43,1.33,1.29-.31,1.83-.11.6.54-.29,1.64-.86,1.64.86.54.29-.11-.6-.31-1.83L25,25l.43-.43-.6-.08L23,24.22l-.82-1.66L21.88,22Z"/><circle class="cls-82" cx="58.27" cy="9.42" r="2.36"/><ellipse class="cls-83" cx="58.27" cy="9.1" rx="1.96" ry="1.74"/></g></g></svg>