<svg xmlns="http://www.w3.org/2000/svg" xmlns:xlink="http://www.w3.org/1999/xlink" viewBox="0 0 69.424 52.61"><defs><style>.cls-1{fill:url(#linear-gradient);}.cls-2{fill:#333;}.cls-3{fill:#4d4d4d;}.cls-4{opacity:0.4;isolation:isolate;fill:url(#radial-gradient);}.cls-5{clip-path:url(#clip-path);}.cls-6{fill:url(#linear-gradient-3);}.cls-7{fill:url(#linear-gradient-4);}.cls-8{fill:url(#linear-gradient-5);}.cls-9{fill:url(#linear-gradient-6);}.cls-10{fill:url(#linear-gradient-7);}.cls-11{fill:url(#linear-gradient-8);}.cls-12{fill:url(#linear-gradient-9);}.cls-13{fill:url(#linear-gradient-10);}.cls-14{fill:url(#linear-gradient-11);}.cls-15{fill:url(#_ÂÁ_Ï_ÌÌ_È_ËÂÌÚ_431);}.cls-16{fill:url(#linear-gradient-12);}.cls-17{fill:#eff2f8;}.cls-18{fill:url(#linear-gradient-13);}.cls-19{fill:url(#linear-gradient-14);}.cls-20{fill:#fff;}</style><linearGradient id="linear-gradient" x1="21.435" y1="19.588" x2="47.362" y2="19.588" gradientUnits="userSpaceOnUse"><stop offset="0" stop-color="#d48600"/><stop offset="0.013" stop-color="#cd8100"/><stop offset="0.057" stop-color="#b97300"/><stop offset="0.108" stop-color="#ab6900"/><stop offset="0.172" stop-color="#a36300"/><stop offset="0.287" stop-color="#a16100"/><stop offset="1" stop-color="#db8e00"/></linearGradient><radialGradient id="radial-gradient" cx="41.832" cy="6149.659" r="12.469" gradientTransform="matrix(1, -0.008, -0.001, -0.17, 1.107, 1078.979)" gradientUnits="userSpaceOnUse"><stop offset="0.18" stop-color="#1d1733"/><stop offset="0.65" stop-color="#1d1733" stop-opacity="0"/></radialGradient><clipPath id="clip-path"><circle class="cls-1" cx="34.399" cy="19.588" r="12.964"/></clipPath><linearGradient id="linear-gradient-3" x1="34.397" y1="19.588" x2="34.397" y2="5.275" gradientUnits="userSpaceOnUse"><stop offset="0.583" stop-color="#b77700"/><stop offset="1" stop-color="#d69700"/></linearGradient><linearGradient id="linear-gradient-4" x1="37.291" y1="19.588" x2="37.291" y2="5.275" xlink:href="#linear-gradient-3"/><linearGradient id="linear-gradient-5" x1="31.504" y1="19.588" x2="31.504" y2="5.275" xlink:href="#linear-gradient-3"/><linearGradient id="linear-gradient-6" x1="40.186" y1="19.588" x2="40.186" y2="5.275" xlink:href="#linear-gradient-3"/><linearGradient id="linear-gradient-7" x1="43.079" y1="19.588" x2="43.079" y2="5.275" xlink:href="#linear-gradient-3"/><linearGradient id="linear-gradient-8" x1="45.972" y1="19.588" x2="45.972" y2="5.275" xlink:href="#linear-gradient-3"/><linearGradient id="linear-gradient-9" x1="28.611" y1="19.588" x2="28.611" y2="5.275" xlink:href="#linear-gradient-3"/><linearGradient id="linear-gradient-10" x1="25.718" y1="19.588" x2="25.718" y2="5.275" xlink:href="#linear-gradient-3"/><linearGradient id="linear-gradient-11" x1="22.825" y1="19.588" x2="22.825" y2="5.275" xlink:href="#linear-gradient-3"/><linearGradient id="_ÂÁ_Ï_ÌÌ_È_ËÂÌÚ_431" x1="34.399" y1="10.427" x2="34.399" y2="35.169" gradientUnits="userSpaceOnUse"><stop offset="0" stop-color="#e09700"/><stop offset="0.066" stop-color="#e5a70b"/><stop offset="0.144" stop-color="#e9b213"/><stop offset="0.227" stop-color="#eab616"/><stop offset="0.233" stop-color="#ebb717"/><stop offset="0.323" stop-color="#f6c925"/><stop offset="0.421" stop-color="#fdd32d"/><stop offset="0.539" stop-color="#ffd630"/><stop offset="0.648" stop-color="#ffd323"/><stop offset="0.853" stop-color="#ffcf11"/><stop offset="1" stop-color="#ffce0b"/></linearGradient><linearGradient id="linear-gradient-12" x1="34.399" y1="32.998" x2="34.399" y2="8.938" xlink:href="#linear-gradient-3"/><linearGradient id="linear-gradient-13" x1="44.295" y1="1799.925" x2="31.257" y2="1813.413" gradientTransform="matrix(1, 0, 0, -1, 0, 1831.132)" gradientUnits="userSpaceOnUse"><stop offset="0.121" stop-color="#ffb600"/><stop offset="0.427" stop-color="#ffb800"/><stop offset="0.537" stop-color="#ffbf00"/><stop offset="0.616" stop-color="#ffca00"/><stop offset="0.659" stop-color="#ffd500"/><stop offset="0.685" stop-color="#fdd100"/><stop offset="0.881" stop-color="#f3b800"/><stop offset="1" stop-color="#efaf00"/></linearGradient><linearGradient id="linear-gradient-14" x1="30.482" y1="20.975" x2="38.346" y2="20.975" gradientUnits="userSpaceOnUse"><stop offset="0" stop-color="#b77700"/><stop offset="1" stop-color="#ffc629"/></linearGradient></defs><g id="Layer_2" data-name="Layer 2"><g id="Layer_3" data-name="Layer 3"><rect class="cls-2" x="0.25" y="0.25" width="68.924" height="52.11"/><path class="cls-3" d="M68.924.5V52.11H.5V.5H68.924m.5-.5H0V52.61H69.424V0Z"/><ellipse class="cls-4" cx="34.516" cy="33.088" rx="13.776" ry="2.537"/><circle class="cls-1" cx="34.399" cy="19.588" r="12.964"/><g class="cls-5"><rect class="cls-6" x="33.748" y="5.275" width="1.299" height="14.314"/><rect class="cls-7" x="36.641" y="5.275" width="1.299" height="14.314"/><rect class="cls-8" x="30.855" y="5.275" width="1.299" height="14.314"/><rect class="cls-9" x="39.536" y="5.275" width="1.299" height="14.314"/><rect class="cls-10" x="42.429" y="5.275" width="1.299" height="14.314"/><rect class="cls-11" x="45.323" y="5.275" width="1.299" height="14.314"/><rect class="cls-12" x="27.962" y="5.275" width="1.299" height="14.314"/><rect class="cls-13" x="25.068" y="5.275" width="1.299" height="14.314"/><rect class="cls-14" x="22.175" y="5.275" width="1.299" height="14.314"/></g><circle class="cls-15" cx="34.399" cy="20.968" r="12.964"/><circle class="cls-16" cx="34.399" cy="20.968" r="12.03"/><ellipse class="cls-17" cx="34.399" cy="20.745" rx="12.03" ry="11.807"/><circle class="cls-18" cx="34.399" cy="20.968" r="10.558"/><polygon class="cls-19" points="30.756 16.012 33.259 16.012 33.259 14.142 35.596 14.142 35.596 16.012 38.208 16.012 38.208 17.909 34.056 23.546 38.346 23.546 38.346 26.021 35.568 26.021 35.568 27.808 33.259 27.808 33.259 26.048 30.482 26.048 30.482 24.234 34.799 18.459 30.756 18.459 30.756 16.012"/><polygon class="cls-20" points="30.756 16.54 33.259 16.54 33.259 14.671 35.596 14.671 35.596 16.54 38.208 16.54 38.208 18.438 34.056 24.074 38.346 24.074 38.346 26.549 35.568 26.549 35.568 28.336 33.259 28.336 33.259 26.577 30.482 26.577 30.482 24.762 34.799 18.988 30.756 18.988 30.756 16.54"/></g></g></svg>