<svg width="34" height="34" viewBox="0 0 34 34" fill="none" xmlns="http://www.w3.org/2000/svg">
<g clip-path="url(#clip0_2_134)">
<g style="mix-blend-mode:multiply" opacity="0.6">
<g style="mix-blend-mode:multiply" opacity="0.6">
<path d="M17.001 34.0019C26.3903 34.0019 34.0019 26.3903 34.0019 17.001C34.0019 7.61159 26.3903 0 17.001 0C7.61159 0 0 7.61159 0 17.001C0 26.3903 7.61159 34.0019 17.001 34.0019Z" fill="#231F20"/>
</g>
</g>
<path d="M20.7265 9.42271H13.2735C11.1496 9.42271 9.42273 11.1496 9.42273 13.2735V20.7265C9.42273 22.8504 11.1496 24.5773 13.2735 24.5773H20.7265C22.8504 24.5773 24.5773 22.8504 24.5773 20.7265V13.2735C24.5773 11.1496 22.8504 9.42271 20.7265 9.42271ZM16.9991 21.985C14.2507 21.985 12.015 19.7493 12.015 17.001C12.015 14.2526 14.2507 12.0169 16.9991 12.0169C19.7474 12.0169 21.9831 14.2526 21.9831 17.001C21.9831 19.7493 19.7474 21.985 16.9991 21.985ZM22.2356 12.5681C21.7692 12.5681 21.3934 12.1904 21.3934 11.7259C21.3934 11.2614 21.7711 10.8836 22.2356 10.8836C22.7001 10.8836 23.0779 11.2614 23.0779 11.7259C23.0779 12.1904 22.7001 12.5681 22.2356 12.5681Z" fill="#904BEE"/>
<path d="M17.045 20.0282C18.717 20.0043 20.0531 18.6294 20.0292 16.9574C20.0052 15.2853 18.6304 13.9492 16.9583 13.9732C15.2863 13.9971 13.9502 15.372 13.9741 17.044C13.998 18.7161 15.3729 20.0521 17.045 20.0282Z" fill="#904BEE"/>
<path d="M17.001 0C7.61102 0 0 7.61102 0 17.001C0 26.3909 7.61102 34.0019 17.001 34.0019C26.3909 34.0019 34.0019 26.3909 34.0019 17.001C34.0019 7.61102 26.389 0 17.001 0ZM26.7532 20.7265C26.7532 24.0492 24.0511 26.7513 20.7284 26.7513H13.2754C9.95272 26.7513 7.25061 24.0492 7.25061 20.7265V13.2735C7.25061 9.9508 9.95272 7.24868 13.2754 7.24868H20.7284C24.0511 7.24868 26.7532 9.9508 26.7532 13.2735V20.7265Z" fill="#904BEE"/>
<path d="M20.7265 7.24868H13.2735C9.95077 7.24868 7.24866 9.95079 7.24866 13.2735V20.7265C7.24866 24.0492 9.95077 26.7513 13.2735 26.7513H20.7265C24.0492 26.7513 26.7513 24.0492 26.7513 20.7265V13.2735C26.7513 9.95079 24.0492 7.24868 20.7265 7.24868ZM24.5773 20.7265C24.5773 22.8504 22.8504 24.5773 20.7265 24.5773H13.2735C11.1496 24.5773 9.42268 22.8504 9.42268 20.7265V13.2735C9.42268 11.1496 11.1496 9.42271 13.2735 9.42271H20.7265C22.8504 9.42271 24.5773 11.1496 24.5773 13.2735V20.7265Z" fill="#F7F7F5"/>
<path d="M17.001 12.015C14.2526 12.015 12.0169 14.2507 12.0169 16.999C12.0169 19.7474 14.2526 21.9831 17.001 21.9831C19.7493 21.9831 21.985 19.7474 21.985 16.999C21.985 14.2507 19.7493 12.015 17.001 12.015ZM17.001 20.0269C15.3319 20.0269 13.9731 18.6681 13.9731 16.999C13.9731 15.33 15.3319 13.9712 17.001 13.9712C18.67 13.9712 20.0288 15.33 20.0288 16.999C20.0288 18.6681 18.67 20.0269 17.001 20.0269Z" fill="#F7F7F5"/>
<path d="M22.2375 10.8836C21.7711 10.8836 21.3953 11.2614 21.3953 11.7259C21.3953 12.1903 21.773 12.5681 22.2375 12.5681C22.702 12.5681 23.0797 12.1903 23.0797 11.7259C23.0797 11.2614 22.702 10.8836 22.2375 10.8836Z" fill="#F7F7F5"/>
</g>
<defs>
<clipPath id="clip0_2_134">
<rect width="34" height="34" fill="white"/>
</clipPath>
</defs>
</svg>
