<svg width="34" height="35" viewBox="0 0 34 35" fill="none" xmlns="http://www.w3.org/2000/svg">
<g clip-path="url(#clip0_2_160)">
<path d="M17.001 0C7.61102 0 0 7.83487 0 17.501C0 27.1671 7.61102 35.002 17.001 35.002C26.3909 35.002 34.0019 27.1671 34.0019 17.501C34.0019 7.83487 26.389 0 17.001 0ZM14.2468 21.596H15.4051V25.9985C15.4051 26.4469 15.0428 26.8199 14.6072 26.8199H12.1422C11.7066 26.8199 11.3462 26.4469 11.3462 25.9985V21.596H7.14075C6.48739 21.596 6.05374 20.9234 6.34284 20.3262L12.5758 8.68601C12.6625 8.52531 12.7898 8.39437 12.9459 8.30508C13.4065 8.04121 13.9866 8.21183 14.243 8.68601L16.8526 13.8345L13.3737 20.3262C13.3024 20.477 13.3024 20.6258 13.3024 20.7746C13.3737 21.2508 13.7765 21.6019 14.2449 21.596H14.2468ZM26.8592 21.596H22.729V25.9985C22.729 26.4469 22.3666 26.8199 21.9311 26.8199H19.3215C18.882 26.8159 18.5274 26.4509 18.5236 25.9985V21.596H19.6838C20.1521 21.6019 20.555 21.2528 20.6263 20.7746C20.6263 20.6258 20.6263 20.477 20.553 20.3262L17.0742 13.8345L19.757 8.68403C20.0134 8.20985 20.5954 8.04121 21.0541 8.30508C21.2083 8.39437 21.3375 8.52531 21.4223 8.68403L27.6552 20.3242C27.9443 20.9214 27.5107 21.594 26.8573 21.594L26.8592 21.596Z" fill="#904BEE"/>
<path d="M16.8545 13.8345L14.2449 8.68602C13.9886 8.21184 13.4084 8.04121 12.9478 8.30509C12.7917 8.39437 12.6645 8.52531 12.5778 8.68602L6.34478 20.3262C6.05568 20.9234 6.48933 21.596 7.1427 21.596H11.3481V25.9985C11.3481 26.4469 11.7105 26.8199 12.1441 26.8199H14.6092C15.0447 26.8199 15.4071 26.4469 15.4071 25.9985V21.596H14.2488C13.7804 21.602 13.3776 21.2528 13.3063 20.7746C13.3063 20.6258 13.3063 20.477 13.3776 20.3262L16.8564 13.8345H16.8545Z" fill="#F3F7F7"/>
<path d="M21.4223 8.68601C21.3355 8.52729 21.2083 8.39436 21.0542 8.30707C20.5935 8.04319 20.0134 8.21382 19.7571 8.68601L17.0742 13.8365L20.553 20.3282C20.6263 20.479 20.6263 20.6278 20.6263 20.7766C20.555 21.2528 20.1522 21.6039 19.6838 21.598H18.5236V26.0005C18.5274 26.4529 18.8821 26.8179 19.3215 26.8219H21.9311C22.3667 26.8219 22.729 26.4489 22.729 26.0005V21.598H26.8593C27.5126 21.598 27.9463 20.9254 27.6572 20.3282L21.4242 8.688L21.4223 8.68601Z" fill="#F3F7F7"/>
</g>
<defs>
<clipPath id="clip0_2_160">
<rect width="34" height="35" fill="white"/>
</clipPath>
</defs>
</svg>
