<svg width="34" height="35" viewBox="0 0 34 35" fill="none" xmlns="http://www.w3.org/2000/svg">
<g clip-path="url(#clip0_101_2)">
<path d="M17.001 0C7.61102 0 0 7.83487 0 17.501C0 27.1671 7.61102 35.002 17.001 35.002C26.3909 35.002 34.0019 27.1671 34.0019 17.501C34.0019 7.83487 26.389 0 17.001 0Z" fill="#904BEE"/>
<path d="M29 17.949C28.9561 11.3519 23.5879 6 16.9937 6C10.3995 6 5 11.3828 5 17.9985C5 24.6141 10.3807 30 16.9937 30C20.0259 30 22.9451 28.8536 25.1463 26.7988C25.5916 26.3847 25.6167 25.6956 25.2028 25.2538C24.8045 24.8181 24.1241 24.7872 23.6851 25.1796H23.6789C19.7938 28.8165 13.6543 28.6559 9.96681 24.8273C9.87588 24.7346 9.78808 24.6389 9.70342 24.54L14.8145 16.4442V20.18C14.8145 21.9753 15.52 22.5562 16.1126 22.7262C16.7053 22.8961 17.6114 22.7787 18.5615 21.2584L21.3836 16.7563C21.4714 16.611 21.556 16.4874 21.6313 16.3793V18.669C21.6313 20.3469 22.3149 21.6879 23.5127 22.3492C24.6227 22.9394 25.971 22.8868 27.0277 22.2101C28.3447 21.3666 29.0627 19.8401 28.9875 18.0015H29V17.949ZM25.8675 20.3407H25.8644C25.4787 20.6033 24.977 20.6373 24.5568 20.4272C24.0739 20.1584 23.8137 19.528 23.8137 18.669V16.0363C23.8137 14.7725 23.3057 13.8733 22.456 13.6292C21.0199 13.2151 19.9475 14.9486 19.5336 15.6006L16.9937 19.6516V14.7076C16.9655 13.5674 16.5892 12.8845 15.8774 12.6806C15.4071 12.5446 14.7016 12.6002 14.0149 13.6323L8.33629 22.6149C7.58061 21.1904 7.18866 19.6053 7.19493 17.9985C7.19493 12.5848 11.5848 8.18154 16.9937 8.18154C22.4027 8.18154 26.8082 12.5848 26.8082 17.9985V18.0541C26.8615 19.1016 26.5166 19.9359 25.8675 20.3407Z" fill="#F3F7F7"/>
</g>
<defs>
<clipPath id="clip0_101_2">
<rect width="34" height="35" fill="white"/>
</clipPath>
</defs>
</svg>
