<svg xmlns="http://www.w3.org/2000/svg" xmlns:xlink="http://www.w3.org/1999/xlink" viewBox="0 0 69.42 52.61"><defs><style>.cls-1{fill:none;}.cls-13,.cls-17,.cls-2,.cls-5{isolation:isolate;}.cls-3{fill:#333;}.cls-4{fill:#4d4d4d;}.cls-13,.cls-17,.cls-5{opacity:0.4;}.cls-5{fill:url(#radial-gradient);}.cls-6{fill:#52009b;}.cls-7{clip-path:url(#clip-path);}.cls-8{fill:#2a004a;}.cls-9{fill:url(#linear-gradient);}.cls-10{fill:#eff2f8;}.cls-11{fill:url(#linear-gradient-2);}.cls-12{fill:#fff;}.cls-13{fill:url(#radial-gradient-2);}.cls-14{clip-path:url(#clip-path-2);}.cls-15{fill:url(#linear-gradient-3);}.cls-16{fill:url(#linear-gradient-4);}.cls-17{fill:url(#radial-gradient-3);}.cls-18{clip-path:url(#clip-path-3);}.cls-19{fill:url(#linear-gradient-5);}.cls-20{fill:url(#linear-gradient-6);}.cls-21{opacity:0.7;fill:url(#radial-gradient-4);}.cls-22{opacity:0.4;fill:url(#radial-gradient-5);}.cls-23{fill:#320066;}.cls-24{fill:#a56321;}.cls-25{fill:#6005a5;}.cls-26{fill:url(#linear-gradient-7);}.cls-27{fill:url(#linear-gradient-8);}.cls-28{fill:url(#linear-gradient-9);}.cls-29{fill:url(#linear-gradient-10);}.cls-30{fill:url(#linear-gradient-11);}.cls-31{fill:url(#linear-gradient-12);}.cls-32,.cls-33,.cls-34{mix-blend-mode:multiply;}.cls-32{fill:url(#linear-gradient-13);}.cls-33{fill:url(#linear-gradient-14);}.cls-34{fill:url(#linear-gradient-15);}.cls-35,.cls-36,.cls-37,.cls-38,.cls-45{mix-blend-mode:screen;}.cls-35{fill:url(#linear-gradient-16);}.cls-36{fill:url(#linear-gradient-17);}.cls-37{fill:url(#linear-gradient-18);}.cls-39{fill:#d8d8d8;}.cls-40{opacity:0.6;fill:url(#radial-gradient-6);}.cls-41{fill:url(#linear-gradient-19);}.cls-42{fill:url(#linear-gradient-20);}.cls-43{fill:url(#linear-gradient-21);}.cls-44{fill:url(#radial-gradient-7);}.cls-45{opacity:0.3;fill:url(#linear-gradient-22);}.cls-46{fill:url(#linear-gradient-23);}.cls-47{fill:url(#linear-gradient-24);}.cls-48{fill:url(#linear-gradient-25);}</style><radialGradient id="radial-gradient" cx="30.83" cy="-5941.98" r="5.92" gradientTransform="matrix(1, -0.01, 0, 0.17, 0.82, 1029.93)" gradientUnits="userSpaceOnUse"><stop offset="0.18" stop-color="#1d1733"/><stop offset="0.65" stop-color="#1d1733" stop-opacity="0"/></radialGradient><clipPath id="clip-path"><circle class="cls-1" cx="23.52" cy="13.18" r="6.16"/></clipPath><linearGradient id="linear-gradient" x1="23.52" y1="1562.33" x2="23.52" y2="1550.57" gradientTransform="matrix(0.98, -0.17, -0.17, -0.98, 270.89, 1551.57)" gradientUnits="userSpaceOnUse"><stop offset="0.1" stop-color="#a345f4"/><stop offset="0.67" stop-color="#6f19bb"/><stop offset="1" stop-color="#52009b"/></linearGradient><linearGradient id="linear-gradient-2" x1="28.23" y1="-622.74" x2="22.03" y2="-629.15" gradientTransform="translate(109.45 635.98) rotate(-10)" gradientUnits="userSpaceOnUse"><stop offset="0.56" stop-color="#7b23c8"/><stop offset="0.7" stop-color="#a345f4"/><stop offset="1" stop-color="#52009b"/></linearGradient><radialGradient id="radial-gradient-2" cx="51.94" cy="-5940.57" r="5.92" gradientTransform="matrix(0.01, 1, -0.17, 0, -966.8, -25.48)" xlink:href="#radial-gradient"/><clipPath id="clip-path-2"><circle class="cls-1" cx="44.63" cy="13.17" r="6.16"/></clipPath><linearGradient id="linear-gradient-3" x1="44.63" y1="1562.25" x2="44.63" y2="1550.5" gradientTransform="matrix(0.98, 0.17, 0.17, -0.98, -269.85, 1539.65)" xlink:href="#linear-gradient"/><linearGradient id="linear-gradient-4" x1="49.33" y1="-622.67" x2="43.14" y2="-629.08" gradientTransform="matrix(0.98, 0.17, -0.17, 0.98, -108.41, 624.07)" xlink:href="#linear-gradient-2"/><radialGradient id="radial-gradient-3" cx="41.75" cy="-5946.94" r="6.64" gradientTransform="matrix(1, -0.01, 0, 0.17, -0.29, 1029.98)" xlink:href="#radial-gradient"/><clipPath id="clip-path-3"><circle class="cls-1" cx="34.31" cy="11.41" r="6.9"/></clipPath><linearGradient id="linear-gradient-5" x1="34.31" y1="1564.56" x2="34.31" y2="1551.39" gradientTransform="matrix(1, 0, 0, -1, 0, 1571.1)" xlink:href="#linear-gradient"/><linearGradient id="linear-gradient-6" x1="39.58" y1="-623.79" x2="32.64" y2="-630.97" gradientTransform="translate(0 641.39)" xlink:href="#linear-gradient-2"/><radialGradient id="radial-gradient-4" cx="34.71" cy="18.17" r="21.24" gradientTransform="translate(0 13.75) scale(1 0.17)" gradientUnits="userSpaceOnUse"><stop offset="0.42" stop-color="#333"/><stop offset="0.66" stop-color="#383838" stop-opacity="0.63"/><stop offset="1" stop-color="#404040" stop-opacity="0"/></radialGradient><radialGradient id="radial-gradient-5" cx="34.71" cy="35.85" r="22.82" gradientTransform="translate(0 30.47) scale(1 0.15)" gradientUnits="userSpaceOnUse"><stop offset="0"/><stop offset="0.87" stop-color="#2a2a2a" stop-opacity="0.34"/><stop offset="1" stop-color="#404040" stop-opacity="0"/></radialGradient><linearGradient id="linear-gradient-7" x1="13.61" y1="16.98" x2="13.61" y2="34.84" gradientUnits="userSpaceOnUse"><stop offset="0" stop-color="#52009b"/><stop offset="0.13" stop-color="#7b23c8"/><stop offset="0.35" stop-color="#7b23c8"/><stop offset="0.51" stop-color="#bd73ff"/><stop offset="0.65" stop-color="#9c3fec"/><stop offset="0.84" stop-color="#52009b"/><stop offset="0.98" stop-color="#350066"/></linearGradient><linearGradient id="linear-gradient-8" x1="54.64" y1="16.99" x2="54.64" y2="34.85" xlink:href="#linear-gradient-7"/><linearGradient id="linear-gradient-9" x1="34.08" y1="15.7" x2="34.08" y2="36.18" gradientUnits="userSpaceOnUse"><stop offset="0" stop-color="#f79307"/><stop offset="0.22" stop-color="#ce7b06"/><stop offset="0.33" stop-color="#f59207"/><stop offset="0.61" stop-color="#fc9608"/><stop offset="0.73" stop-color="#de8407"/><stop offset="0.82" stop-color="#e98b07"/><stop offset="1" stop-color="#cc7a06"/></linearGradient><linearGradient id="linear-gradient-10" x1="34.08" y1="15.52" x2="34.08" y2="35.74" xlink:href="#linear-gradient-7"/><linearGradient id="linear-gradient-11" x1="34.08" y1="15.15" x2="34.08" y2="36.05" gradientUnits="userSpaceOnUse"><stop offset="0" stop-color="#6a6a6a"/><stop offset="0.18" stop-color="#939393"/><stop offset="0.27" stop-color="#727272"/><stop offset="0.39" stop-color="#c8c8c8"/><stop offset="0.67" stop-color="#b6b6b6"/><stop offset="0.78" stop-color="#797979"/><stop offset="1" stop-color="#bababa"/></linearGradient><linearGradient id="linear-gradient-12" x1="34.08" y1="15.7" x2="34.08" y2="35.52" gradientUnits="userSpaceOnUse"><stop offset="0" stop-color="#d9d9d9"/><stop offset="0.22" stop-color="#959595"/><stop offset="0.33" stop-color="#d3d3d3"/><stop offset="0.61" stop-color="#e6e6e6"/><stop offset="0.73" stop-color="#909090"/><stop offset="0.82" stop-color="#afafaf"/><stop offset="1" stop-color="#878787"/></linearGradient><linearGradient id="linear-gradient-13" x1="40.5" y1="18.23" x2="51.05" y2="18.23" gradientUnits="userSpaceOnUse"><stop offset="0" stop-color="#848484"/><stop offset="0.18" stop-color="#adadad"/><stop offset="0.27" stop-color="#8e8e8e"/><stop offset="0.39" stop-color="#e4e4e4"/><stop offset="0.67" stop-color="#d1d1d1"/><stop offset="0.78" stop-color="#939393"/><stop offset="1" stop-color="#d6d6d6"/></linearGradient><linearGradient id="linear-gradient-14" x1="28.72" y1="18.23" x2="39.28" y2="18.23" xlink:href="#linear-gradient-13"/><linearGradient id="linear-gradient-15" x1="16.95" y1="18.23" x2="27.5" y2="18.23" xlink:href="#linear-gradient-13"/><linearGradient id="linear-gradient-16" x1="40.5" y1="33.39" x2="51.05" y2="33.39" xlink:href="#linear-gradient-13"/><linearGradient id="linear-gradient-17" x1="28.72" y1="33.39" x2="39.28" y2="33.39" xlink:href="#linear-gradient-13"/><linearGradient id="linear-gradient-18" x1="16.95" y1="33.39" x2="27.51" y2="33.39" xlink:href="#linear-gradient-13"/><radialGradient id="radial-gradient-6" cx="52.36" cy="68.23" r="3.48" gradientTransform="matrix(-0.03, -1, 0.26, -0.01, 38.92, 74.25)" gradientUnits="userSpaceOnUse"><stop offset="0.04" stop-color="#141414"/><stop offset="1" stop-color="#141414" stop-opacity="0"/></radialGradient><linearGradient id="linear-gradient-19" x1="52.45" y1="18.89" x2="56.27" y2="20.23" gradientUnits="userSpaceOnUse"><stop offset="0" stop-color="#c5c5c5"/><stop offset="0.2" stop-color="#eee"/><stop offset="0.46" stop-color="#bababa"/><stop offset="0.73" stop-color="#636363"/><stop offset="0.89" stop-color="#797979"/><stop offset="0.91" stop-color="#757575"/><stop offset="0.94" stop-color="#686868"/><stop offset="0.97" stop-color="#545454"/><stop offset="1" stop-color="#3b3b3b"/></linearGradient><linearGradient id="linear-gradient-20" x1="54.53" y1="20.7" x2="54.55" y2="18.49" gradientUnits="userSpaceOnUse"><stop offset="0" stop-color="#3b3b3b"/><stop offset="0.03" stop-color="#545454"/><stop offset="0.06" stop-color="#686868"/><stop offset="0.09" stop-color="#757575"/><stop offset="0.11" stop-color="#797979"/><stop offset="0.27" stop-color="#636363"/><stop offset="0.54" stop-color="#bababa"/><stop offset="0.8" stop-color="#eee"/><stop offset="1" stop-color="#c5c5c5"/></linearGradient><linearGradient id="linear-gradient-21" x1="56.89" y1="15.57" x2="55.49" y2="15.06" gradientUnits="userSpaceOnUse"><stop offset="0.12" stop-color="#454545"/><stop offset="0.65" stop-color="gray"/><stop offset="0.92" stop-color="#c7c7c7"/></linearGradient><radialGradient id="radial-gradient-7" cx="57.68" cy="7.11" r="3.81" gradientUnits="userSpaceOnUse"><stop offset="0.21" stop-color="#a345f4"/><stop offset="0.49" stop-color="#7b23c8"/><stop offset="1" stop-color="#52009b"/></radialGradient><linearGradient id="linear-gradient-22" x1="58.27" y1="9.9" x2="58.27" y2="7.39" gradientUnits="userSpaceOnUse"><stop offset="0"/><stop offset="1" stop-color="#fff"/></linearGradient><linearGradient id="linear-gradient-23" x1="45.08" y1="22.61" x2="47.42" y2="28.04" gradientTransform="matrix(1, 0, 0, 1, 0, 0)" xlink:href="#linear-gradient-2"/><linearGradient id="linear-gradient-24" x1="32.94" y1="22.61" x2="35.27" y2="28.04" gradientTransform="matrix(1, 0, 0, 1, 0, 0)" xlink:href="#linear-gradient-2"/><linearGradient id="linear-gradient-25" x1="20.8" y1="22.61" x2="23.13" y2="28.04" gradientTransform="matrix(1, 0, 0, 1, 0, 0)" xlink:href="#linear-gradient-2"/></defs><g class="cls-2"><g id="Layer_1" data-name="Layer 1"><g id="Layer_2" data-name="Layer 2"><g id="Layer_3" data-name="Layer 3"><rect class="cls-3" x="0.25" y="0.25" width="68.92" height="52.11"/><path class="cls-4" d="M68.92.5V52.11H.5V.5H68.92m.5-.5H0V52.61H69.42Z"/></g></g><ellipse class="cls-5" cx="24.69" cy="19.49" rx="6.55" ry="1.21" transform="translate(-3.01 4.58) rotate(-10)"/><circle class="cls-6" cx="23.52" cy="13.18" r="6.16"/><g class="cls-7"><rect class="cls-8" x="22.62" y="6.43" width="0.62" height="6.8" transform="translate(-1.36 4.13) rotate(-10)"/><rect class="cls-8" x="23.98" y="6.19" width="0.62" height="6.8" transform="translate(-1.3 4.36) rotate(-10)"/><rect class="cls-8" x="21.27" y="6.67" width="0.62" height="6.8" transform="translate(-1.42 3.9) rotate(-10)"/><rect class="cls-8" x="25.33" y="5.95" width="0.62" height="6.8" transform="translate(-1.23 4.59) rotate(-10)"/><rect class="cls-8" x="26.68" y="5.71" width="0.62" height="6.8" transform="translate(-1.17 4.83) rotate(-10)"/><rect class="cls-8" x="28.04" y="5.48" width="0.62" height="6.8" transform="translate(-1.11 5.06) rotate(-10)"/><rect class="cls-8" x="19.91" y="6.91" width="0.62" height="6.8" transform="translate(-1.48 3.67) rotate(-10)"/><rect class="cls-8" x="18.56" y="7.15" width="0.62" height="6.8" transform="translate(-1.54 3.44) rotate(-10)"/><rect class="cls-8" x="17.21" y="7.39" width="0.62" height="6.8" transform="translate(-1.61 3.21) rotate(-10)"/></g><circle class="cls-9" cx="23.64" cy="13.83" r="6.16"/><circle class="cls-8" cx="23.64" cy="13.83" r="5.72"/><ellipse class="cls-10" cx="23.62" cy="13.72" rx="5.72" ry="5.61" transform="translate(-2.02 4.31) rotate(-10)"/><circle class="cls-11" cx="23.64" cy="13.83" r="5.02"/><polygon class="cls-12" points="21.52 11.81 22.69 11.6 22.54 10.73 23.63 10.53 23.79 11.41 25.01 11.19 25.17 12.08 23.69 15.06 25.7 14.71 25.9 15.87 24.6 16.09 24.75 16.93 23.67 17.12 23.52 16.3 22.22 16.53 22.07 15.68 23.62 12.62 21.72 12.95 21.52 11.81"/><ellipse class="cls-13" cx="43.57" cy="19.5" rx="1.21" ry="6.55" transform="translate(16.8 59.02) rotate(-80)"/><circle class="cls-6" cx="44.63" cy="13.17" r="6.16"/><g class="cls-14"><rect class="cls-8" x="41.82" y="9.51" width="6.8" height="0.62" transform="translate(27.7 52.65) rotate(-80)"/><rect class="cls-8" x="43.17" y="9.75" width="6.8" height="0.62" transform="translate(28.58 54.18) rotate(-80)"/><rect class="cls-8" x="40.47" y="9.27" width="6.8" height="0.62" transform="translate(26.81 51.12) rotate(-80)"/><rect class="cls-8" x="44.53" y="9.99" width="6.8" height="0.62" transform="translate(29.46 55.71) rotate(-80)"/><rect class="cls-8" x="45.88" y="10.23" width="6.8" height="0.62" transform="translate(30.35 57.24) rotate(-80)"/><rect class="cls-8" x="47.24" y="10.47" width="6.8" height="0.62" transform="translate(31.23 58.77) rotate(-80)"/><rect class="cls-8" x="39.11" y="9.04" width="6.8" height="0.62" transform="translate(25.93 49.59) rotate(-80)"/><rect class="cls-8" x="37.76" y="8.8" width="6.8" height="0.62" transform="translate(25.04 48.06) rotate(-80)"/><rect class="cls-8" x="36.4" y="8.56" width="6.8" height="0.62" transform="translate(24.16 46.53) rotate(-80)"/></g><circle class="cls-15" cx="44.52" cy="13.82" r="6.16"/><circle class="cls-8" cx="44.52" cy="13.82" r="5.72"/><ellipse class="cls-10" cx="44.54" cy="13.71" rx="5.61" ry="5.72" transform="translate(23.3 55.19) rotate(-80)"/><circle class="cls-16" cx="44.52" cy="13.82" r="5.02"/><polygon class="cls-12" points="43.22 11.2 44.39 11.4 44.55 10.53 45.64 10.72 45.49 11.6 46.71 11.81 46.55 12.7 44.14 14.99 46.15 15.35 45.95 16.51 44.65 16.28 44.5 17.11 43.42 16.92 43.56 16.1 42.27 15.87 42.41 15.02 44.91 12.68 43.02 12.34 43.22 11.2"/><ellipse class="cls-17" cx="34.37" cy="18.6" rx="7.33" ry="1.35"/><circle class="cls-6" cx="34.31" cy="11.41" r="6.9"/><g class="cls-18"><rect class="cls-8" x="33.96" y="3.79" width="0.69" height="7.62"/><rect class="cls-8" x="35.5" y="3.79" width="0.69" height="7.62"/><rect class="cls-8" x="32.42" y="3.79" width="0.69" height="7.62"/><rect class="cls-8" x="37.04" y="3.79" width="0.69" height="7.62"/><rect class="cls-8" x="38.58" y="3.79" width="0.69" height="7.62"/><rect class="cls-8" x="40.13" y="3.79" width="0.69" height="7.62"/><rect class="cls-8" x="30.88" y="3.79" width="0.69" height="7.62"/><rect class="cls-8" x="29.34" y="3.79" width="0.69" height="7.62"/><rect class="cls-8" x="27.8" y="3.79" width="0.69" height="7.62"/></g><circle class="cls-19" cx="34.31" cy="12.15" r="6.9"/><circle class="cls-8" cx="34.31" cy="12.15" r="6.41"/><ellipse class="cls-10" cx="34.31" cy="12.03" rx="6.41" ry="6.29"/><circle class="cls-20" cx="34.31" cy="12.15" r="5.62"/><polygon class="cls-12" points="32.37 9.51 33.7 9.51 33.7 8.51 34.95 8.51 34.95 9.51 36.34 9.51 36.34 10.52 34.13 13.52 36.41 13.52 36.41 14.84 34.93 14.84 34.93 15.79 33.7 15.79 33.7 14.85 32.22 14.85 32.22 13.89 34.52 10.81 32.37 10.81 32.37 9.51"/><ellipse class="cls-21" cx="34.71" cy="16.87" rx="32.62" ry="7.08"/><ellipse class="cls-22" cx="34.71" cy="35.85" rx="34.71" ry="7.56"/><g id="_1" data-name="1"><path class="cls-23" d="M54.72,16.86H13.32c-1.39,0-2.52,4-2.52,8.94s1.13,9,2.52,9h41.4c1.39,0,2.52-4,2.52-8.95S56.11,16.86,54.72,16.86Z"/><path class="cls-24" d="M32.39,16.87h-15c-1.38,0-2.49,4-2.49,8.94s1.11,8.94,2.49,8.94h15Z"/><path class="cls-25" d="M54.5,16.87H44.22V34.75H54.5c1.38,0,2.49-4,2.49-8.94S55.88,16.87,54.5,16.87Z"/><path class="cls-25" d="M13.66,16.87H23.94V34.75H13.66c-1.37,0-2.49-4-2.49-8.94S12.29,16.87,13.66,16.87Z"/><path class="cls-26" d="M15.27,16.86a27.93,27.93,0,0,0-1.15,8.94,27.93,27.93,0,0,0,1.15,8.94h-.83c-1.37,0-2.49-4-2.49-8.94s1.12-8.94,2.49-8.94Z"/><path class="cls-27" d="M56.3,25.81c0,4.94-1.12,8.94-2.49,8.94H53a27.93,27.93,0,0,0,1.15-8.94A27.93,27.93,0,0,0,53,16.87h.83C55.18,16.87,56.3,20.87,56.3,25.81Z"/><path class="cls-28" d="M51.14,15.55H17c-1.15,0-2.08,4.6-2.08,10.26S15.87,36.06,17,36.06H51.14c1.14,0,2.07-4.59,2.07-10.25S52.28,15.55,51.14,15.55Z"/><path class="cls-29" d="M51.36,15.55H16.79c-1.16,0-2.1,4.6-2.1,10.26s.94,10.25,2.1,10.25H51.36c1.16,0,2.11-4.59,2.11-10.25S52.52,15.55,51.36,15.55Z"/><path class="cls-30" d="M50.77,33.59H40.93a103.61,103.61,0,0,0,0-15.56h9.84a13.12,13.12,0,0,1,.56,3.89c.09,1.29.09,6.48,0,7.78A13.17,13.17,0,0,1,50.77,33.59ZM39,18H29.16a139.25,139.25,0,0,0,0,15.56H39A144.22,144.22,0,0,0,39,18ZM27.22,18H17.38a13.46,13.46,0,0,0-.56,3.89c-.09,1.29-.09,6.48,0,7.78a13.51,13.51,0,0,0,.56,3.89h9.84A103.61,103.61,0,0,1,27.22,18Z"/><path class="cls-31" d="M41.39,33.18a113.43,113.43,0,0,0,0-14.75h9.09a12.31,12.31,0,0,1,.42,3l0,.55c.08,1.26.08,6.46,0,7.72l0,.55a12.22,12.22,0,0,1-.42,3Zm-11.87,0c-.23-2.9-.23-11.85,0-14.75h9.11c.23,2.9.23,11.85,0,14.75Zm-11.85,0a12.22,12.22,0,0,1-.42-3l0-.55c-.08-1.26-.08-6.46,0-7.72l0-.55a12.31,12.31,0,0,1,.42-3h9.1a110,110,0,0,0,0,14.75Z"/><polygon class="cls-32" points="40.93 18.03 41.39 18.43 50.48 18.43 50.77 18.03 40.93 18.03"/><polygon class="cls-33" points="29.16 18.03 29.52 18.43 38.63 18.43 39 18.03 29.16 18.03"/><polygon class="cls-34" points="17.38 18.03 17.75 18.43 26.77 18.43 27.22 18.03 17.38 18.03"/><polygon class="cls-35" points="40.93 33.59 41.39 33.18 50.48 33.18 50.77 33.59 40.93 33.59"/><polygon class="cls-36" points="39 33.59 38.63 33.18 29.52 33.18 29.16 33.59 39 33.59"/><polygon class="cls-37" points="26.77 33.18 27.22 33.59 17.38 33.59 17.67 33.18 26.77 33.18"/><g class="cls-38"><path class="cls-39" d="M50.77,18l0,0,.05.12.07.2c0,.08,0,.18.07.28s.09.47.13.76.09.63.13,1,.07.76.11,1.18.06.87.09,1.33.05.93.06,1.41,0,1,0,1.47,0,1,0,1.46,0,1,0,1.42,0,.9-.07,1.33c0,.21,0,.41,0,.61s0,.39-.06.57c0,.37-.09.7-.14,1s-.12.55-.18.76-.06.19-.08.27l0,.11a.36.36,0,0,0,0,.09l-.08.16.07-.16,0-.09,0-.11c0-.08,0-.17.08-.28s.1-.46.15-.75.05-.31.07-.47,0-.34.05-.53,0-.37,0-.57,0-.4,0-.61c0-.42,0-.86.05-1.32s0-.94,0-1.42,0-1,0-1.46l0-1.46c0-.49,0-1-.06-1.42s-.05-.9-.07-1.32-.06-.82-.1-1.18c0-.19,0-.36,0-.53s0-.32-.05-.47c0-.3-.08-.56-.12-.77l-.06-.28c0-.08,0-.14-.06-.2l-.05-.12Z"/></g><g class="cls-38"><path class="cls-39" d="M40.87,18l0,.17q0,.09,0,.21l0,.28c0,.21,0,.47.07.77s0,.63.06,1,0,.76,0,1.18l0,1.32q0,.69,0,1.41c0,.48,0,1,0,1.45v1.45c0,.48,0,1,0,1.41s0,.9,0,1.32,0,.81,0,1.18-.05.7-.07,1,0,.29,0,.42l0,.35s0,.1,0,.15l0,.13,0,.21,0,.17,0-.18,0-.2,0-.13a.76.76,0,0,0,0-.15l0-.36a2.54,2.54,0,0,0,0-.41l0-.47c0-.17,0-.34,0-.53,0-.36,0-.76,0-1.17s0-.86,0-1.32,0-.93,0-1.41,0-1,0-1.45,0-1,0-1.45,0-.95,0-1.41,0-.9,0-1.32,0-.81,0-1.17,0-.7,0-1,0-.55,0-.77l0-.28c0-.08,0-.15,0-.21Z"/></g><g class="cls-38"><path class="cls-39" d="M38.9,18l0,.17q0,.09,0,.21l0,.28c0,.21,0,.47.07.77s0,.63.06,1,0,.76.05,1.18l0,1.32,0,1.41c0,.48,0,1,0,1.45v1.45c0,.48,0,1,0,1.41s0,.9,0,1.32,0,.81-.05,1.18,0,.7-.07,1,0,.29,0,.42l0,.35a.77.77,0,0,1,0,.15l0,.13,0,.21,0,.17,0-.18,0-.2,0-.13a.76.76,0,0,0,0-.15l0-.36c0-.12,0-.26,0-.41l0-.47c0-.17,0-.34,0-.53,0-.36,0-.76,0-1.17s0-.86,0-1.32,0-.93,0-1.41,0-1,0-1.45,0-1,0-1.45,0-.95,0-1.41l0-1.32c0-.41,0-.81,0-1.17s0-.7,0-1,0-.55,0-.77l0-.28c0-.08,0-.15,0-.21Z"/></g><g class="cls-38"><path class="cls-39" d="M17.28,18v0a.73.73,0,0,0-.05.12c0,.06,0,.12-.06.2l-.06.28c0,.21-.08.47-.12.77,0,.15,0,.3-.05.47s0,.34-.06.53c0,.36-.06.76-.09,1.18s-.05.86-.08,1.32,0,.93-.05,1.42,0,1,0,1.46,0,1,0,1.46,0,1,0,1.42,0,.9.06,1.32c0,.21,0,.42,0,.61s0,.39.05.57,0,.36.06.53,0,.32.07.47a5.2,5.2,0,0,0,.15.75,1.58,1.58,0,0,0,.08.28l0,.11,0,.09.07.16-.07-.16,0-.09,0-.11L17,33a6.83,6.83,0,0,1-.17-.76c-.05-.29-.11-.62-.15-1,0-.18,0-.37,0-.57s0-.4-.05-.61c0-.43-.06-.87-.07-1.33s0-.93,0-1.42,0-1,0-1.46,0-1,0-1.47,0-1,.07-1.41.05-.91.09-1.33.07-.81.11-1.18.08-.7.12-1,.1-.55.14-.76.05-.2.07-.28.05-.15.06-.2a.67.67,0,0,1,.06-.12Z"/></g><g class="cls-38"><path class="cls-39" d="M27.19,18l0,.17q0,.09,0,.21l0,.28c0,.22,0,.47-.05.77s0,.63,0,1,0,.76,0,1.17L27,23c0,.46,0,.93,0,1.41s0,1,0,1.45,0,1,0,1.45,0,.95,0,1.41,0,.9,0,1.32,0,.81,0,1.17c0,.19,0,.36,0,.53l0,.47c0,.15,0,.29,0,.41l0,.36s0,.1,0,.15l0,.13,0,.2,0,.18,0-.17,0-.21,0-.13a.77.77,0,0,0,0-.15l0-.35c0-.13,0-.27-.05-.42s0-.63-.06-1,0-.76-.05-1.18,0-.86,0-1.32,0-.93,0-1.41,0-1,0-1.45,0-1,0-1.45,0-.95,0-1.41l.05-1.32c0-.42,0-.81,0-1.18s0-.7.06-1,0-.56.06-.77l0-.28c0-.08,0-.15,0-.21Z"/></g><g class="cls-38"><path class="cls-39" d="M29.16,18l0,.17q0,.09,0,.21l0,.28c0,.22,0,.47,0,.77s0,.63,0,1,0,.76,0,1.17l0,1.32c0,.46,0,.93,0,1.41s0,1,0,1.45,0,1,0,1.45,0,.95,0,1.41,0,.9,0,1.32,0,.81,0,1.17c0,.19,0,.36,0,.53l0,.47c0,.15,0,.29,0,.41l0,.36a.76.76,0,0,1,0,.15l0,.13,0,.2,0,.18,0-.17,0-.21,0-.13s0-.1,0-.15l0-.35c0-.13,0-.27,0-.42s-.05-.63-.06-1,0-.76,0-1.18,0-.86,0-1.32,0-.93,0-1.41,0-1,0-1.45,0-1,0-1.45,0-.95,0-1.41l0-1.32c0-.42,0-.81.06-1.18s0-.7.06-1,0-.56.06-.77l0-.28c0-.08,0-.15,0-.21Z"/></g><ellipse class="cls-40" cx="54.58" cy="21.04" rx="1.34" ry="5.19" transform="translate(-1.91 5.84) rotate(-6.02)"/><path class="cls-41" d="M54.54,20.6a1,1,0,1,1,1-1A1,1,0,0,1,54.54,20.6Z"/><path class="cls-42" d="M55.46,19.62a.92.92,0,0,1-1.83,0,.92.92,0,0,1,1.83,0Z"/><path class="cls-43" d="M54.18,20.42a1,1,0,0,0,1.2-.43l2.95-9.29s0-.44-.31-.56-.62.27-.62.27L53.75,19.2A.86.86,0,0,0,54.18,20.42Z"/><circle class="cls-44" cx="58.27" cy="9.41" r="2.36"/><ellipse class="cls-45" cx="58.27" cy="9.09" rx="1.96" ry="1.74"/></g><polygon class="cls-46" points="46.16 27.39 44.19 28.43 44.56 26.23 42.96 24.67 45.17 24.35 46.16 22.34 47.15 24.35 49.36 24.67 47.76 26.23 48.14 28.43 46.16 27.39"/><path class="cls-23" d="M46.16,22.68l.89,1.8,2,.29L47.6,26.18l.34,2-1.78-.94-1.78.94.34-2-1.43-1.41,2-.29.89-1.8m0-.68-.27.55-.82,1.66-1.83.27-.6.08.44.43,1.32,1.29-.31,1.83-.1.59.53-.28,1.64-.86,1.64.86.54.28-.1-.59-.32-1.83L49.25,25l.44-.43-.61-.08-1.83-.27-.82-1.66L46.16,22Z"/><polygon class="cls-47" points="32.42 26.23 30.82 24.67 33.03 24.35 34.02 22.34 35.01 24.35 37.22 24.67 35.62 26.23 36 28.43 34.02 27.39 32.04 28.43 32.42 26.23"/><path class="cls-23" d="M34,22.68l.89,1.8,2,.29-1.44,1.41.34,2L34,27.22l-1.78.94.34-2-1.44-1.41,2-.29.89-1.8M34,22l-.27.55-.82,1.66-1.83.27-.6.08.43.43,1.33,1.29L32,28.11l-.11.59.54-.28L34,27.56l1.64.86.54.28-.1-.59-.32-1.83L37.11,25l.43-.43-.6-.08-1.83-.27-.82-1.66L34,22Z"/><polygon class="cls-48" points="21.88 27.39 19.9 28.43 20.28 26.23 18.68 24.67 20.89 24.35 21.88 22.34 22.87 24.35 25.08 24.67 23.48 26.23 23.86 28.43 21.88 27.39"/><path class="cls-23" d="M21.88,22.68l.89,1.8,2,.29-1.44,1.41.34,2-1.78-.94-1.78.94.34-2L19,24.77l2-.29.89-1.8m0-.68-.27.55-.82,1.66L19,24.48l-.6.08.43.43,1.33,1.29-.31,1.83-.11.59.54-.28,1.64-.86,1.64.86.54.28L24,28.11l-.31-1.83L25,25l.43-.43-.6-.08L23,24.21l-.82-1.66L21.88,22Z"/></g></g></svg>