<svg xmlns="http://www.w3.org/2000/svg" xmlns:xlink="http://www.w3.org/1999/xlink" viewBox="0 0 69.42 52.61"><defs><style>.cls-1{fill:none;}.cls-12,.cls-15,.cls-2,.cls-5{isolation:isolate;}.cls-3{fill:#333;}.cls-4{fill:#4d4d4d;}.cls-12,.cls-15,.cls-5{opacity:0.4;}.cls-5{fill:url(#radial-gradient);}.cls-6{fill:url(#linear-gradient);}.cls-7{clip-path:url(#clip-path);}.cls-8{fill:#a56321;}.cls-9{fill:#fbb03a;}.cls-10{fill:#eff2f8;}.cls-11{fill:#fff;}.cls-12{fill:url(#radial-gradient-2);}.cls-13{fill:url(#linear-gradient-2);}.cls-14{clip-path:url(#clip-path-2);}.cls-15{fill:url(#radial-gradient-3);}.cls-16{fill:url(#linear-gradient-3);}.cls-17{clip-path:url(#clip-path-3);}.cls-18{opacity:0.7;fill:url(#radial-gradient-4);}.cls-19{opacity:0.4;fill:url(#radial-gradient-5);}.cls-20{fill:#824916;}.cls-21{fill:url(#linear-gradient-4);}.cls-22{fill:url(#linear-gradient-5);}.cls-23{fill:url(#linear-gradient-6);}.cls-24{fill:url(#linear-gradient-7);}.cls-25{fill:url(#linear-gradient-8);}.cls-26,.cls-27,.cls-28{mix-blend-mode:multiply;}.cls-26{fill:url(#linear-gradient-9);}.cls-27{fill:url(#linear-gradient-10);}.cls-28{fill:url(#linear-gradient-11);}.cls-29,.cls-30,.cls-31,.cls-32,.cls-39{mix-blend-mode:screen;}.cls-29{fill:url(#linear-gradient-12);}.cls-30{fill:url(#linear-gradient-13);}.cls-31{fill:url(#linear-gradient-14);}.cls-33{fill:#d8d8d8;}.cls-34{opacity:0.6;fill:url(#radial-gradient-6);}.cls-35{fill:url(#linear-gradient-15);}.cls-36{fill:url(#linear-gradient-16);}.cls-37{fill:url(#linear-gradient-17);}.cls-38{fill:url(#radial-gradient-7);}.cls-39{opacity:0.3;fill:url(#linear-gradient-18);}</style><radialGradient id="radial-gradient" cx="60.32" cy="-6554.59" r="5.94" gradientTransform="matrix(0.01, 1, -0.17, 0, -1071.26, -33.07)" gradientUnits="userSpaceOnUse"><stop offset="0.18" stop-color="#1d1733"/><stop offset="0.65" stop-color="#1d1733" stop-opacity="0"/></radialGradient><linearGradient id="linear-gradient" x1="46.26" y1="1464.72" x2="58.62" y2="1464.72" gradientTransform="matrix(0.98, 0.17, 0.17, -0.98, -261.37, 1446.5)" gradientUnits="userSpaceOnUse"><stop offset="0" stop-color="#bf6f00"/><stop offset="0.34" stop-color="#c37200"/><stop offset="0.66" stop-color="#ce7b00"/><stop offset="0.98" stop-color="#e28b00"/><stop offset="1" stop-color="#e38c00"/></linearGradient><clipPath id="clip-path"><circle class="cls-1" cx="44.62" cy="13.15" r="6.18"/></clipPath><radialGradient id="radial-gradient-2" cx="39.8" cy="-6531.58" r="5.93" gradientTransform="matrix(1, -0.01, 0, 0.17, -7.43, 1130.3)" xlink:href="#radial-gradient"/><linearGradient id="linear-gradient-2" x1="25.77" y1="1460.64" x2="38.1" y2="1460.64" gradientTransform="matrix(0.98, -0.17, -0.17, -0.98, 245.66, 1457.24)" xlink:href="#linear-gradient"/><clipPath id="clip-path-2"><circle class="cls-1" cx="23.47" cy="13.25" r="6.17"/></clipPath><radialGradient id="radial-gradient-3" cx="42.9" cy="-7109.47" r="6.65" gradientTransform="matrix(1, -0.01, 0, 0.17, -0.07, 1227.63)" xlink:href="#radial-gradient"/><linearGradient id="linear-gradient-3" x1="27.39" y1="1559.68" x2="41.23" y2="1559.68" gradientTransform="matrix(1, 0, 0, -1, 0, 1571.1)" xlink:href="#linear-gradient"/><clipPath id="clip-path-3"><circle class="cls-1" cx="34.31" cy="11.41" r="6.92"/></clipPath><radialGradient id="radial-gradient-4" cx="34.71" cy="18.17" r="21.24" gradientTransform="translate(0 13.75) scale(1 0.17)" gradientUnits="userSpaceOnUse"><stop offset="0.42" stop-color="#333"/><stop offset="0.66" stop-color="#383838" stop-opacity="0.63"/><stop offset="1" stop-color="#404040" stop-opacity="0"/></radialGradient><radialGradient id="radial-gradient-5" cx="34.71" cy="35.85" r="22.82" gradientTransform="translate(0 30.47) scale(1 0.15)" gradientUnits="userSpaceOnUse"><stop offset="0"/><stop offset="0.87" stop-color="#2a2a2a" stop-opacity="0.34"/><stop offset="1" stop-color="#404040" stop-opacity="0"/></radialGradient><linearGradient id="linear-gradient-4" x1="13.61" y1="16.99" x2="13.61" y2="34.85" gradientTransform="matrix(1, 0, 0, 1, 0, 0)" xlink:href="#linear-gradient"/><linearGradient id="linear-gradient-5" x1="54.64" y1="17" x2="54.64" y2="34.86" gradientTransform="matrix(1, 0, 0, 1, 0, 0)" xlink:href="#linear-gradient"/><linearGradient id="linear-gradient-6" x1="34.08" y1="15.71" x2="34.08" y2="36.19" gradientUnits="userSpaceOnUse"><stop offset="0" stop-color="#f79307"/><stop offset="0.22" stop-color="#ce7b06"/><stop offset="0.33" stop-color="#f59207"/><stop offset="0.61" stop-color="#fc9608"/><stop offset="0.73" stop-color="#de8407"/><stop offset="0.82" stop-color="#e98b07"/><stop offset="1" stop-color="#cc7a06"/></linearGradient><linearGradient id="linear-gradient-7" x1="34.08" y1="15.16" x2="34.08" y2="36.06" gradientUnits="userSpaceOnUse"><stop offset="0" stop-color="#6a6a6a"/><stop offset="0.18" stop-color="#939393"/><stop offset="0.27" stop-color="#727272"/><stop offset="0.39" stop-color="#c8c8c8"/><stop offset="0.67" stop-color="#b6b6b6"/><stop offset="0.78" stop-color="#797979"/><stop offset="1" stop-color="#bababa"/></linearGradient><linearGradient id="linear-gradient-8" x1="34.08" y1="15.71" x2="34.08" y2="35.53" gradientUnits="userSpaceOnUse"><stop offset="0" stop-color="#d9d9d9"/><stop offset="0.22" stop-color="#959595"/><stop offset="0.33" stop-color="#d3d3d3"/><stop offset="0.61" stop-color="#e6e6e6"/><stop offset="0.73" stop-color="#909090"/><stop offset="0.82" stop-color="#afafaf"/><stop offset="1" stop-color="#878787"/></linearGradient><linearGradient id="linear-gradient-9" x1="40.5" y1="18.24" x2="51.05" y2="18.24" gradientUnits="userSpaceOnUse"><stop offset="0" stop-color="#848484"/><stop offset="0.18" stop-color="#adadad"/><stop offset="0.27" stop-color="#8e8e8e"/><stop offset="0.39" stop-color="#e4e4e4"/><stop offset="0.67" stop-color="#d1d1d1"/><stop offset="0.78" stop-color="#939393"/><stop offset="1" stop-color="#d6d6d6"/></linearGradient><linearGradient id="linear-gradient-10" x1="28.72" y1="18.24" x2="39.28" y2="18.24" xlink:href="#linear-gradient-9"/><linearGradient id="linear-gradient-11" x1="16.95" y1="18.24" x2="27.5" y2="18.24" xlink:href="#linear-gradient-9"/><linearGradient id="linear-gradient-12" x1="40.5" y1="33.4" x2="51.05" y2="33.4" xlink:href="#linear-gradient-9"/><linearGradient id="linear-gradient-13" x1="28.72" y1="33.4" x2="39.28" y2="33.4" xlink:href="#linear-gradient-9"/><linearGradient id="linear-gradient-14" x1="16.95" y1="33.4" x2="27.51" y2="33.4" xlink:href="#linear-gradient-9"/><radialGradient id="radial-gradient-6" cx="55.32" cy="11.93" r="3.48" gradientTransform="matrix(-0.03, -1, 0.26, -0.01, 53.66, 76.7)" gradientUnits="userSpaceOnUse"><stop offset="0.04" stop-color="#141414"/><stop offset="1" stop-color="#141414" stop-opacity="0"/></radialGradient><linearGradient id="linear-gradient-15" x1="52.45" y1="18.9" x2="56.27" y2="20.24" gradientUnits="userSpaceOnUse"><stop offset="0" stop-color="#c5c5c5"/><stop offset="0.2" stop-color="#eee"/><stop offset="0.46" stop-color="#bababa"/><stop offset="0.73" stop-color="#636363"/><stop offset="0.89" stop-color="#797979"/><stop offset="0.91" stop-color="#757575"/><stop offset="0.94" stop-color="#686868"/><stop offset="0.97" stop-color="#545454"/><stop offset="1" stop-color="#3b3b3b"/></linearGradient><linearGradient id="linear-gradient-16" x1="54.53" y1="20.71" x2="54.55" y2="18.5" gradientUnits="userSpaceOnUse"><stop offset="0" stop-color="#3b3b3b"/><stop offset="0.03" stop-color="#545454"/><stop offset="0.06" stop-color="#686868"/><stop offset="0.09" stop-color="#757575"/><stop offset="0.11" stop-color="#797979"/><stop offset="0.27" stop-color="#636363"/><stop offset="0.54" stop-color="#bababa"/><stop offset="0.8" stop-color="#eee"/><stop offset="1" stop-color="#c5c5c5"/></linearGradient><linearGradient id="linear-gradient-17" x1="56.89" y1="15.57" x2="55.49" y2="15.06" gradientUnits="userSpaceOnUse"><stop offset="0.12" stop-color="#454545"/><stop offset="0.65" stop-color="gray"/><stop offset="0.92" stop-color="#c7c7c7"/></linearGradient><radialGradient id="radial-gradient-7" cx="59.83" cy="11.38" r="4.64" gradientTransform="matrix(1, 0, 0, 1, 0, 0)" xlink:href="#linear-gradient"/><linearGradient id="linear-gradient-18" x1="58.27" y1="9.91" x2="58.27" y2="7.4" gradientUnits="userSpaceOnUse"><stop offset="0"/><stop offset="1" stop-color="#fff"/></linearGradient></defs><g class="cls-2"><g id="Layer_1" data-name="Layer 1"><g id="Layer_2" data-name="Layer 2"><g id="Layer_3" data-name="Layer 3"><rect class="cls-3" x="0.25" y="0.25" width="68.92" height="52.11"/><path class="cls-4" d="M68.92.5V52.11H.5V.5H68.92m.5-.5H0V52.61H69.42Z"/></g></g><ellipse class="cls-5" cx="43.56" cy="19.49" rx="1.21" ry="6.56" transform="translate(16.8 59) rotate(-80)"/><circle class="cls-6" cx="44.62" cy="13.15" r="6.18"/><g class="cls-7"><rect class="cls-8" x="41.8" y="9.48" width="6.82" height="0.62" transform="translate(27.72 52.62) rotate(-80)"/><rect class="cls-8" x="43.16" y="9.72" width="6.82" height="0.62" transform="translate(28.61 54.15) rotate(-80)"/><rect class="cls-8" x="40.45" y="9.24" width="6.82" height="0.62" transform="translate(26.83 51.08) rotate(-80)"/><rect class="cls-8" x="44.52" y="9.96" width="6.82" height="0.62" transform="translate(29.49 55.69) rotate(-80)"/><rect class="cls-8" x="45.88" y="10.2" width="6.82" height="0.62" transform="translate(30.38 57.22) rotate(-80)"/><rect class="cls-8" x="47.23" y="10.44" width="6.82" height="0.62" transform="translate(31.26 58.76) rotate(-80)"/><rect class="cls-8" x="39.09" y="9" width="6.82" height="0.62" transform="translate(25.95 49.55) rotate(-80)"/><rect class="cls-8" x="37.73" y="8.76" width="6.82" height="0.62" transform="translate(25.06 48.01) rotate(-80)"/><rect class="cls-8" x="36.37" y="8.52" width="6.82" height="0.62" transform="translate(24.18 46.48) rotate(-80)"/></g><circle class="cls-9" cx="44.51" cy="13.8" r="6.18"/><circle class="cls-8" cx="44.51" cy="13.8" r="5.73"/><ellipse class="cls-10" cx="44.53" cy="13.69" rx="5.63" ry="5.73" transform="translate(23.31 55.16) rotate(-80)"/><circle class="cls-9" cx="44.51" cy="13.8" r="5.03"/><polygon class="cls-11" points="43.21 11.17 44.38 11.38 44.54 10.5 45.63 10.69 45.48 11.57 46.7 11.79 46.55 12.68 44.13 14.98 46.15 15.33 45.94 16.49 44.64 16.26 44.49 17.1 43.41 16.91 43.55 16.09 42.25 15.86 42.4 15 44.9 12.65 43.01 12.32 43.21 11.17"/><ellipse class="cls-12" cx="24.64" cy="19.56" rx="6.55" ry="1.21" transform="translate(-3.02 4.58) rotate(-10)"/><circle class="cls-13" cx="23.47" cy="13.25" r="6.17"/><g class="cls-14"><rect class="cls-8" x="22.57" y="6.49" width="0.62" height="6.81" transform="translate(-1.37 4.12) rotate(-10)"/><rect class="cls-8" x="23.92" y="6.25" width="0.62" height="6.81" transform="translate(-1.31 4.35) rotate(-10)"/><rect class="cls-8" x="21.21" y="6.73" width="0.62" height="6.81" transform="translate(-1.43 3.89) rotate(-10)"/><rect class="cls-8" x="25.28" y="6.01" width="0.62" height="6.81" transform="translate(-1.25 4.59) rotate(-10)"/><rect class="cls-8" x="26.64" y="5.77" width="0.62" height="6.81" transform="translate(-1.18 4.82) rotate(-10)"/><rect class="cls-8" x="27.99" y="5.53" width="0.62" height="6.81" transform="translate(-1.12 5.05) rotate(-10)"/><rect class="cls-8" x="19.86" y="6.97" width="0.62" height="6.81" transform="translate(-1.49 3.66) rotate(-10)"/><rect class="cls-8" x="18.5" y="7.21" width="0.62" height="6.81" transform="translate(-1.56 3.43) rotate(-10)"/><rect class="cls-8" x="17.15" y="7.45" width="0.62" height="6.81" transform="translate(-1.62 3.2) rotate(-10)"/></g><circle class="cls-9" cx="23.58" cy="13.89" r="6.17"/><circle class="cls-8" cx="23.58" cy="13.89" r="5.72"/><ellipse class="cls-10" cx="23.57" cy="13.79" rx="5.72" ry="5.62" transform="translate(-2.04 4.3) rotate(-10)"/><circle class="cls-9" cx="23.58" cy="13.89" r="5.02"/><polygon class="cls-11" points="21.47 11.87 22.64 11.66 22.49 10.79 23.58 10.6 23.73 11.47 24.96 11.26 25.11 12.14 23.64 15.13 25.65 14.78 25.85 15.93 24.55 16.16 24.7 17 23.61 17.19 23.47 16.37 22.17 16.6 22.02 15.75 23.56 12.68 21.67 13.02 21.47 11.87"/><ellipse class="cls-15" cx="34.37" cy="18.61" rx="7.35" ry="1.35"/><circle class="cls-16" cx="34.31" cy="11.41" r="6.92"/><g class="cls-17"><rect class="cls-8" x="33.96" y="3.77" width="0.69" height="7.64"/><rect class="cls-8" x="35.51" y="3.77" width="0.69" height="7.64"/><rect class="cls-8" x="32.42" y="3.77" width="0.69" height="7.64"/><rect class="cls-8" x="37.05" y="3.77" width="0.69" height="7.64"/><rect class="cls-8" x="38.59" y="3.77" width="0.69" height="7.64"/><rect class="cls-8" x="40.14" y="3.77" width="0.69" height="7.64"/><rect class="cls-8" x="30.87" y="3.77" width="0.69" height="7.64"/><rect class="cls-8" x="29.33" y="3.77" width="0.69" height="7.64"/><rect class="cls-8" x="27.79" y="3.77" width="0.69" height="7.64"/></g><circle class="cls-9" cx="34.31" cy="12.15" r="6.92"/><circle class="cls-8" cx="34.31" cy="12.15" r="6.42"/><ellipse class="cls-10" cx="34.31" cy="12.03" rx="6.42" ry="6.3"/><circle class="cls-9" cx="34.31" cy="12.15" r="5.63"/><polygon class="cls-11" points="32.37 9.5 33.7 9.5 33.7 8.51 34.95 8.51 34.95 9.5 36.34 9.5 36.34 10.52 34.13 13.52 36.41 13.52 36.41 14.84 34.93 14.84 34.93 15.8 33.7 15.8 33.7 14.86 32.22 14.86 32.22 13.89 34.52 10.81 32.37 10.81 32.37 9.5"/><ellipse class="cls-18" cx="34.71" cy="16.87" rx="32.62" ry="7.08"/><ellipse class="cls-19" cx="34.71" cy="35.85" rx="34.71" ry="7.56"/><g id="_1" data-name="1"><path class="cls-20" d="M54.72,16.87H13.32c-1.39,0-2.52,4-2.52,8.94s1.13,9,2.52,9h41.4c1.39,0,2.52-4,2.52-8.95S56.11,16.87,54.72,16.87Z"/><path class="cls-8" d="M32.39,16.88h-15c-1.38,0-2.49,4-2.49,8.94s1.11,8.94,2.49,8.94h15Z"/><path class="cls-8" d="M54.5,16.88H44.22V34.76H54.5c1.38,0,2.49-4,2.49-8.94S55.88,16.88,54.5,16.88Z"/><path class="cls-8" d="M13.66,16.88H23.94V34.76H13.66c-1.37,0-2.49-4-2.49-8.94S12.29,16.88,13.66,16.88Z"/><path class="cls-21" d="M15.27,16.87a27.93,27.93,0,0,0-1.15,8.94,27.93,27.93,0,0,0,1.15,8.94h-.83c-1.37,0-2.49-4-2.49-8.94s1.12-8.94,2.49-8.94Z"/><path class="cls-22" d="M56.3,25.82c0,4.94-1.12,8.94-2.49,8.94H53a27.93,27.93,0,0,0,1.15-8.94A27.93,27.93,0,0,0,53,16.88h.83C55.18,16.88,56.3,20.88,56.3,25.82Z"/><path class="cls-23" d="M51.14,15.56H17c-1.15,0-2.08,4.6-2.08,10.26S15.87,36.07,17,36.07H51.14c1.14,0,2.07-4.59,2.07-10.25S52.28,15.56,51.14,15.56Z"/><path class="cls-9" d="M51.36,15.56H16.79c-1.16,0-2.1,4.6-2.1,10.26s.94,10.25,2.1,10.25H51.36c1.16,0,2.11-4.59,2.11-10.25S52.52,15.56,51.36,15.56Z"/><path class="cls-24" d="M50.77,33.6H40.93a103.61,103.61,0,0,0,0-15.56h9.84a13.12,13.12,0,0,1,.56,3.89c.09,1.3.09,6.48,0,7.78A13.12,13.12,0,0,1,50.77,33.6ZM39,18H29.16a139.25,139.25,0,0,0,0,15.56H39A144.22,144.22,0,0,0,39,18ZM27.22,18H17.38a13.46,13.46,0,0,0-.56,3.89c-.09,1.3-.09,6.48,0,7.78a13.46,13.46,0,0,0,.56,3.89h9.84A103.61,103.61,0,0,1,27.22,18Z"/><path class="cls-25" d="M41.39,33.19a113.43,113.43,0,0,0,0-14.75h9.09a12.38,12.38,0,0,1,.42,3l0,.55c.08,1.26.08,6.46,0,7.72l0,.55a12.22,12.22,0,0,1-.42,3Zm-11.87,0c-.23-2.89-.23-11.85,0-14.75h9.11c.23,2.9.23,11.86,0,14.75Zm-11.85,0a12.22,12.22,0,0,1-.42-3l0-.55c-.08-1.26-.08-6.46,0-7.72l0-.55a12.38,12.38,0,0,1,.42-3h9.1a110,110,0,0,0,0,14.75Z"/><polygon class="cls-26" points="40.93 18.04 41.39 18.44 50.48 18.44 50.77 18.04 40.93 18.04"/><polygon class="cls-27" points="29.16 18.04 29.52 18.44 38.63 18.44 39 18.04 29.16 18.04"/><polygon class="cls-28" points="17.38 18.04 17.75 18.44 26.77 18.44 27.22 18.04 17.38 18.04"/><polygon class="cls-29" points="40.93 33.6 41.39 33.2 50.48 33.2 50.77 33.6 40.93 33.6"/><polygon class="cls-30" points="39 33.6 38.63 33.2 29.52 33.2 29.16 33.6 39 33.6"/><polygon class="cls-31" points="26.77 33.2 27.22 33.6 17.38 33.6 17.67 33.2 26.77 33.2"/><g class="cls-32"><path class="cls-33" d="M50.77,18l0,0,.05.12.07.2c0,.08,0,.18.07.28s.09.47.13.76.09.63.13,1,.07.76.11,1.18.06.87.09,1.33.05.93.06,1.41,0,1,0,1.47,0,1,0,1.46,0,1,0,1.42,0,.91-.07,1.33c0,.21,0,.41,0,.61s0,.39-.06.57c0,.37-.09.7-.14,1s-.12.55-.18.76-.06.19-.08.27l0,.11,0,.09-.08.16.07-.16,0-.09,0-.11c0-.08,0-.17.08-.27s.1-.47.15-.76.05-.31.07-.47,0-.34.05-.53,0-.37,0-.57,0-.4,0-.61c0-.42,0-.86.05-1.32s0-.94,0-1.42,0-1,0-1.46l0-1.46c0-.48,0-1-.06-1.42s-.05-.9-.07-1.32-.06-.82-.1-1.18c0-.19,0-.36,0-.53s0-.32-.05-.47S51,18.9,51,18.68s0-.19-.06-.27a1.91,1.91,0,0,0-.06-.21l-.05-.12Z"/></g><g class="cls-32"><path class="cls-33" d="M40.87,18l0,.17q0,.09,0,.21l0,.28c0,.22,0,.47.07.77s0,.63.06,1,0,.77,0,1.18l0,1.32q0,.69,0,1.41c0,.48,0,1,0,1.45v1.45c0,.48,0,1,0,1.41s0,.9,0,1.32,0,.81,0,1.18-.05.7-.07,1,0,.29,0,.42l0,.35c0,.05,0,.1,0,.15l0,.13,0,.21,0,.17,0-.17,0-.21,0-.13a.76.76,0,0,0,0-.15l0-.36a2.54,2.54,0,0,0,0-.41l0-.47c0-.17,0-.34,0-.52,0-.37,0-.76,0-1.18s0-.86,0-1.32,0-.93,0-1.41,0-1,0-1.45,0-1,0-1.45,0-.95,0-1.41,0-.9,0-1.31,0-.82,0-1.18,0-.7,0-1,0-.55,0-.76l0-.29c0-.08,0-.15,0-.21Z"/></g><g class="cls-32"><path class="cls-33" d="M38.9,18l0,.17q0,.09,0,.21l0,.28c0,.22,0,.47.07.77s0,.63.06,1,0,.77.05,1.18l0,1.32,0,1.41c0,.48,0,1,0,1.45v1.45c0,.48,0,1,0,1.41s0,.9,0,1.32,0,.81-.05,1.18,0,.7-.07,1,0,.29,0,.42l0,.35a.77.77,0,0,1,0,.15l0,.13,0,.21,0,.17,0-.17,0-.21,0-.13a.76.76,0,0,0,0-.15l0-.36c0-.12,0-.26,0-.41l0-.47c0-.17,0-.34,0-.52,0-.37,0-.76,0-1.18s0-.86,0-1.32,0-.93,0-1.41,0-1,0-1.45,0-1,0-1.45,0-.95,0-1.41l0-1.31c0-.42,0-.82,0-1.18s0-.7,0-1,0-.55,0-.76l0-.29c0-.08,0-.15,0-.21Z"/></g><g class="cls-32"><path class="cls-33" d="M17.28,18v0a.73.73,0,0,0-.05.12,1.91,1.91,0,0,0-.06.21q0,.12-.06.27c0,.22-.08.47-.12.77s0,.3-.05.47,0,.34-.06.53c0,.36-.06.76-.09,1.18s-.05.86-.08,1.32,0,.94-.05,1.42,0,1,0,1.46,0,1,0,1.46,0,1,0,1.42,0,.9.06,1.32c0,.21,0,.42,0,.61s0,.39.05.57,0,.36.06.53,0,.32.07.47a5.67,5.67,0,0,0,.15.76,1.73,1.73,0,0,0,.08.27l0,.11,0,.09.07.16-.07-.16a.79.79,0,0,1,0-.09l0-.11L17,33a6.83,6.83,0,0,1-.17-.76c-.05-.29-.11-.62-.15-1,0-.18,0-.37,0-.57s0-.4-.05-.61c0-.42-.06-.87-.07-1.33s0-.93,0-1.42,0-1,0-1.46,0-1,0-1.47,0-.95.07-1.41.05-.91.09-1.33.07-.81.11-1.18.08-.7.12-1,.1-.55.14-.76.05-.2.07-.28.05-.14.06-.2a.67.67,0,0,1,.06-.12Z"/></g><g class="cls-32"><path class="cls-33" d="M27.19,18l0,.17q0,.09,0,.21l0,.29c0,.21,0,.47-.05.76s0,.63,0,1,0,.76,0,1.18L27,23c0,.46,0,.93,0,1.41s0,1,0,1.45,0,1,0,1.45,0,1,0,1.41,0,.9,0,1.32,0,.81,0,1.18l0,.52,0,.47c0,.15,0,.29,0,.41l0,.36c0,.05,0,.1,0,.15l0,.13,0,.21,0,.17,0-.17,0-.21,0-.13a.77.77,0,0,0,0-.15l0-.35c0-.13,0-.27-.05-.42s0-.63-.06-1,0-.76-.05-1.18,0-.86,0-1.32,0-.93,0-1.41,0-1,0-1.45,0-1,0-1.45,0-.95,0-1.41l.05-1.32c0-.41,0-.81,0-1.18s0-.69.06-1,0-.55.06-.77l0-.28c0-.08,0-.15,0-.21Z"/></g><g class="cls-32"><path class="cls-33" d="M29.16,18l0,.17q0,.09,0,.21l0,.29c0,.21,0,.47,0,.76s0,.63,0,1,0,.76,0,1.18l0,1.31c0,.46,0,.93,0,1.41s0,1,0,1.45,0,1,0,1.45,0,1,0,1.41,0,.9,0,1.32,0,.81,0,1.18l0,.52,0,.47c0,.15,0,.29,0,.41l0,.36a.76.76,0,0,1,0,.15l0,.13,0,.21,0,.17,0-.17,0-.21,0-.13c0-.05,0-.1,0-.15l0-.35c0-.13,0-.27,0-.42s-.05-.63-.06-1,0-.76,0-1.18,0-.86,0-1.32,0-.93,0-1.41,0-1,0-1.45,0-1,0-1.45,0-.95,0-1.41l0-1.32c0-.41,0-.81.06-1.18s0-.69.06-1,0-.55.06-.77l0-.28c0-.08,0-.15,0-.21Z"/></g><ellipse class="cls-34" cx="54.58" cy="21.04" rx="1.34" ry="5.19" transform="translate(-1.91 5.84) rotate(-6.02)"/><path class="cls-35" d="M54.54,20.61a1,1,0,1,1,0-1.95,1,1,0,1,1,0,1.95Z"/><path class="cls-36" d="M55.46,19.64a.92.92,0,1,1-.92-.87A.89.89,0,0,1,55.46,19.64Z"/><path class="cls-37" d="M54.18,20.42a1,1,0,0,0,1.2-.43l2.95-9.29s0-.44-.31-.56-.62.27-.62.27L53.75,19.2A.86.86,0,0,0,54.18,20.42Z"/></g><polygon class="cls-9" points="34.02 22.69 34.91 24.5 36.9 24.78 35.46 26.19 35.8 28.17 34.02 27.23 32.24 28.17 32.58 26.19 31.14 24.78 33.13 24.5 34.02 22.69"/><polygon class="cls-9" points="21.96 22.69 22.85 24.5 24.84 24.78 23.4 26.19 23.74 28.17 21.96 27.23 20.18 28.17 20.52 26.19 19.09 24.78 21.07 24.5 21.96 22.69"/><polygon class="cls-9" points="46.16 22.69 47.05 24.5 49.04 24.78 47.6 26.19 47.94 28.17 46.16 27.23 44.38 28.17 44.72 26.19 43.28 24.78 45.27 24.5 46.16 22.69"/><circle class="cls-38" cx="58.27" cy="9.42" r="2.36"/><ellipse class="cls-39" cx="58.27" cy="9.1" rx="1.96" ry="1.74"/></g></g></svg>