<svg width="34" height="35" viewBox="0 0 34 35" fill="none" xmlns="http://www.w3.org/2000/svg">
<g clip-path="url(#clip0_2_126)">
<g style="mix-blend-mode:multiply" opacity="0.6">
<g style="mix-blend-mode:multiply" opacity="0.6">
<path d="M29.0347 29.8764C35.6567 23.0419 35.6567 11.9608 29.0347 5.12627C22.4126 -1.70829 11.6762 -1.70829 5.0542 5.12627C-1.56782 11.9608 -1.56783 23.0419 5.0542 29.8764C11.6762 36.711 22.4126 36.711 29.0347 29.8764Z" fill="#231F20"/>
</g>
</g>
<path d="M16.9567 0C7.59123 0 0 7.83487 0 17.501C0 27.1671 7.59123 35.002 16.9567 35.002C26.3223 35.002 33.9135 27.1671 33.9135 17.501C33.9135 7.83487 26.3204 0 16.9567 0ZM25.6956 12.8286C25.6956 12.8286 26.3319 18.8184 21.7472 23.3082C15.3266 29.5936 6.06491 24.703 6.06491 24.703C10.5189 24.7565 12.4009 22.8261 12.4009 22.8261C8.73885 22.1833 8.37553 19.4751 8.37553 19.4751C8.99836 19.8778 10.3747 19.4751 10.3747 19.4751C6.29751 17.5446 6.93379 14.9991 6.93379 14.9991C8.12179 15.6816 9.01182 15.4277 9.01182 15.4277C5.84384 12.5866 7.63544 9.57089 7.63544 9.57089C13.2063 15.0388 16.7837 13.9119 16.7837 13.9119C16.5281 10.0669 18.7368 8.56499 21.1128 8.48563C23.1197 8.41817 24.2673 9.85262 24.2673 9.85262C25.8129 9.98753 27.2527 8.92806 27.2527 8.92806C27.122 10.2137 25.4342 11.3009 25.4342 11.3009C26.3165 11.3823 27.8486 10.8863 27.8486 10.8863C27.0431 12.4001 25.6937 12.8286 25.6937 12.8286H25.6956Z" fill="#904BEE"/>
<path d="M25.4342 11.3009C25.4342 11.3009 27.122 10.2137 27.2527 8.92806C27.2527 8.92806 25.811 9.98753 24.2674 9.85261C24.2674 9.85261 23.1197 8.41817 21.1128 8.48563C18.7368 8.56697 16.53 10.0669 16.7838 13.9119C16.7838 13.9119 13.2044 15.0368 7.63547 9.57089C7.63547 9.57089 5.84388 12.5866 9.01185 15.4277C9.01185 15.4277 8.12182 15.6816 6.93383 14.9991C6.93383 14.9991 6.29754 17.5446 10.3748 19.4751C10.3748 19.4751 8.9984 19.8778 8.37557 19.4751C8.37557 19.4751 8.73888 22.1813 12.4009 22.8261C12.4009 22.8261 10.5189 24.7565 6.06494 24.703C6.06494 24.703 15.3267 29.5936 21.7472 23.3082C26.3319 18.8204 25.6956 12.8286 25.6956 12.8286C25.6956 12.8286 27.0451 12.4001 27.8505 10.8863C27.8505 10.8863 26.3185 11.3823 25.4361 11.3009H25.4342Z" fill="#F3F7F7"/>
</g>
<defs>
<clipPath id="clip0_2_126">
<rect width="34" height="35" fill="white"/>
</clipPath>
</defs>
</svg>
