<svg xmlns="http://www.w3.org/2000/svg" viewBox="0 0 24 24"><defs><style>.cls-1{fill:#A345F4;}</style></defs><title>Artboard 11 copy</title><g id="Design"><path class="cls-1" d="M21.64,6a8.06,8.06,0,0,1-2.27.63,4,4,0,0,0,1.71-2.19,7.71,7.71,0,0,1-2.51,1,4,4,0,0,0-6.83,2.73,3.89,3.89,0,0,0,.11.9A11.21,11.21,0,0,1,3.68,4.91a4,4,0,0,0,1.23,5.28,4,4,0,0,1-1.82-.5v.05a4,4,0,0,0,3.17,3.87,4.06,4.06,0,0,1-1,.13,3.8,3.8,0,0,1-.75-.06A4,4,0,0,0,8.16,16.4a7.93,7.93,0,0,1-4.9,1.69A9.08,9.08,0,0,1,2.35,18,11.24,11.24,0,0,0,19.68,8.57V8.05a8.13,8.13,0,0,0,2-2"/></g></svg>
