<svg width="34" height="35" viewBox="0 0 34 35" fill="none" xmlns="http://www.w3.org/2000/svg">
<g clip-path="url(#clip0_2_146)">
<g style="mix-blend-mode:multiply" opacity="0.6">
<g style="mix-blend-mode:multiply" opacity="0.6">
<path d="M29.022 29.8761C35.6613 23.0415 35.6613 11.9605 29.022 5.12592C22.3827 -1.70864 11.6183 -1.70864 4.97902 5.12592C-1.66027 11.9605 -1.66027 23.0415 4.97902 29.8761C11.6183 36.7106 22.3827 36.7106 29.022 29.8761Z" fill="#231F20"/>
</g>
</g>
<path d="M14.2256 13.2433V17.5585V21.8757L17.6138 19.7171L21.0021 17.5585L17.6138 15.3999L14.2256 13.2433Z" fill="#904BEE"/>
<path d="M17.001 0C7.61102 0 0 7.83487 0 17.501C0 27.1671 7.61102 35.002 17.001 35.002C26.3909 35.002 34.0019 27.1671 34.0019 17.501C34.0019 7.83487 26.389 0 17.001 0ZM27.9231 21.2488C27.9231 23.4947 26.1384 25.3339 23.9548 25.3339H10.0472C7.86543 25.3339 6.07879 23.4967 6.07879 21.2488V13.7532C6.07879 11.5073 7.8635 9.6681 10.0472 9.6681H23.9548C26.1365 9.6681 27.9231 11.5053 27.9231 13.7532V21.2488Z" fill="#904BEE"/>
<path d="M23.9548 9.66811H10.0472C7.86543 9.66811 6.0788 11.5053 6.0788 13.7532V21.2488C6.0788 23.4947 7.8635 25.3339 10.0472 25.3339H23.9548C26.1365 25.3339 27.9231 23.4967 27.9231 21.2488V13.7532C27.9231 11.5073 26.1384 9.66811 23.9548 9.66811ZM17.6139 19.7171L14.2256 21.8757V13.2433L17.6139 15.4019L21.0021 17.5605L17.6139 19.7191V19.7171Z" fill="#F3F7F7"/>
</g>
<defs>
<clipPath id="clip0_2_146">
<rect width="34" height="35" fill="white"/>
</clipPath>
</defs>
</svg>
